<?xml version="1.0" encoding="UTF-8" standalone="no"?>
<!DOCTYPE svg PUBLIC "-//W3C//DTD SVG 1.0//EN"
"http://www.w3.org/TR/2001/REC-SVG-20010904/DTD/svg10.dtd">
<svg
   xmlns="http://www.w3.org/2000/svg"
   xmlns:xlink="http://www.w3.org/1999/xlink"
   version="1.0"
   x="0"
   y="0"
   width="300"
   height="300"
   viewBox="0 0 300 300"
   id="Layer_1"
   xml:space="preserve">
  <defs
     id="defs9" />
  <path
     d="M 150.518 14.797 C 75.957 14.797 15.518 75.239 15.518 149.797 C 15.518 224.358 75.957 284.797 150.518 284.797 C 225.074 284.797 285.518 224.358 285.518 149.797 C 285.518 75.24 225.073 14.797 150.518 14.797 z M 150.518 265.708 C 86.501 265.708 34.606 213.811 34.606 149.798 C 34.606 85.784 86.501 33.889 150.518 33.889 C 214.532 33.889 266.427 85.784 266.427 149.798 C 266.427 213.811 214.531 265.708 150.518 265.708 z "
     transform="matrix(-1.000000,0.000000,0.000000,1.000000,301.0360,0.000000)"
     style="font-size:12;fill:#2d86ba;"
     id="path3" />
  <circle
     cx="150.516006"
     cy="149.798004"
     r="104.428001"
     transform="matrix(-1.000000,0.000000,0.000000,1.000000,301.0360,0.000000)"
     style="font-size:12;fill:#2d86ba;"
     id="circle4" />
  <g
     transform="matrix(-1.105251,0.000000,0.000000,1.100349,313.5762,-19.27740)"
     style="font-size:12;"
     id="g5">
    <polygon
       points="109.722,205.66 92.256,210.906 96.447,193.147 100.638,175.393 113.919,187.91 127.198,200.416 109.722,205.66 "
       style="fill:#ffffff;"
       id="polygon6" />
    <polygon
       points="133.376,194.11 106.716,169.1 182.121,88.691 208.779,113.704 133.376,194.11 "
       style="fill:#ffffff;"
       id="polygon7" />
  </g>
</svg>
