<?xml version="1.0" ?><!DOCTYPE svg  PUBLIC '-//W3C//DTD SVG 1.1//EN'  'http://www.w3.org/Graphics/SVG/1.1/DTD/svg11.dtd'><svg enable-background="new 0 0 300 300" height="300px" id="Layer_1" version="1.1" viewBox="0 0 300 300" width="300px" xml:space="preserve" xmlns="http://www.w3.org/2000/svg" xmlns:xlink="http://www.w3.org/1999/xlink"><g><path d="M151.338,14.798C76.78,14.798,16.34,75.24,16.34,149.797c0,74.562,60.44,135.001,134.998,135.001   c74.557,0,135.005-60.439,135.005-135.001C286.343,75.24,225.895,14.798,151.338,14.798z M151.338,265.708   c-64.014,0-115.909-51.897-115.909-115.911c0-64.013,51.895-115.91,115.909-115.91c64.017,0,115.91,51.897,115.91,115.91   C267.248,213.811,215.354,265.708,151.338,265.708z" fill="#2D86BA"/><path d="M255.77,149.797c0,57.677-46.756,104.433-104.432,104.433c-57.675,0-104.426-46.756-104.426-104.433   c0-57.674,46.751-104.428,104.426-104.428C209.014,45.369,255.77,92.123,255.77,149.797z" fill="#2D86BA"/><g><path d="M151.338,88.713c14.31,0,25.916,11.603,25.916,25.917c0,14.314-11.606,25.915-25.916,25.915    c-14.316,0-25.917-11.601-25.917-25.915C125.421,100.316,137.021,88.713,151.338,88.713z" fill="#FFFFFF"/><path d="M203.415,210.883H99.264v-28.824c0-19.443,15.754-35.205,35.207-35.205h33.739    c19.443,0,35.205,15.762,35.205,35.205V210.883z" fill="#FFFFFF"/></g></g></svg>