<?xml version="1.0" encoding="UTF-8"?>
<svg xmlns="http://www.w3.org/2000/svg" version="1.1" height="100" width="100">

  <path style="fill:#111111;stroke:#666666" d="m 41,81 0,8 c 0,0 -6,0 -7,0 -4,0 -6,6 -6,6 2,0 43,0 44,0 0,0 -1,-6 -4,-6 -2,0 -7,0 -7,0 l 0,-8"/>
  <path style="fill:#ffffff;stroke:#000000;stroke-width:3px;stroke-linecap:butt" d="m 4.7,74 c 0,-16 0,-45 0,-57 0,-4 0,-8.8 5.2,-8.8 9.1,0 76.1,0 81.1,0 5,0 5,4.8 5,12.8 0,11 0,46 0,53 0,1 0,5 -8,5 -5,0 -74,0 -78.1,0 -5.2,0 -5.2,-5 -5.2,-5 z"/>
  <path style="fill:#407380;stroke:#ffffff" d="M 7.8,12 93,12 93,75 7.8,75 z"/>

  <ellipse
     cx="32.580643"
     cy="35.806454"
     rx="19.354837"
     ry="19.354836"
     transform="translate(18.38710,8.387108)"
     style="font-size:12;fill:#E8BF4F;fill-opacity:1;fill-rule:evenodd;stroke-width:3pt;"
     id="path566" />
      <path
         d="M 50.9423 17.7318 L 50.9423 70.3124 "
         style="fill:none;fill-opacity:0.75;fill-rule:evenodd;stroke:#e8bf4f;stroke-width:1.5pt;"
         id="path567" />
      <path
         d="M 77.2307 43.7015 L 24.654 44.3426 "
         style="fill:none;fill-opacity:0.75;fill-rule:evenodd;stroke:#e8bf4f;stroke-width:1.5pt;"
         id="path570" />
      <path
         d="M 69.8755 25.7816 L 32.0091 62.2626 "
         style="fill:none;fill-opacity:0.75;fill-rule:evenodd;stroke:#e8bf4f;stroke-width:1.5pt;"
         id="path571" />
      <path
         d="M 61.3886 19.8963 L 40.496 68.1479 "
         style="fill:none;fill-opacity:0.75;fill-rule:evenodd;stroke:#e8bf4f;stroke-width:1.5pt;"
         id="path572" />
      <path
         d="M 69.6155 62.5286 L 32.2691 25.5156 "
         style="fill:none;fill-opacity:0.75;fill-rule:evenodd;stroke:#e8bf4f;stroke-width:1.5pt;"
         id="path574" />
      <path
         d="M 75.451 34.5089 L 26.4336 53.5353 "
         style="fill:none;fill-opacity:0.75;fill-rule:evenodd;stroke:#e8bf4f;stroke-width:1.5pt;"
         id="path573" />
      <path
         d="M 41.2164 19.597 L 60.6682 68.4472 "
         style="fill:none;fill-opacity:0.75;fill-rule:evenodd;stroke:#e8bf4f;stroke-width:1.5pt;"
         id="path576" />
      <path
         d="M 75.5811 53.1932 L 26.3035 34.851 "
         style="fill:none;fill-opacity:0.75;fill-rule:evenodd;stroke:#e8bf4f;stroke-width:1.5pt;"
         id="path575" />

</svg>
