<?xml version="1.0" encoding="UTF-8" standalone="no"?><!DOCTYPE svg  PUBLIC '-//W3C//DTD SVG 1.1//EN'  'http://www.w3.org/Graphics/SVG/1.1/DTD/svg11.dtd'><svg enable-background="new 0 0 300 300" height="300px" id="Layer_1" version="1.1" viewBox="0 0 300 300" width="300px" xml:space="preserve" xmlns="http://www.w3.org/2000/svg" xmlns:xlink="http://www.w3.org/1999/xlink"><g><path d="M151.125,14.989C76.337,14.989,15.71,75.61,15.71,150.4c0,74.782,60.627,135.409,135.415,135.409   c74.787,0,135.415-60.627,135.415-135.409C286.54,75.61,225.912,14.989,151.125,14.989z M151.125,266.664   c-64.212,0-116.263-52.063-116.263-116.264c0-64.214,52.051-116.263,116.263-116.263S267.388,86.186,267.388,150.4   C267.388,214.602,215.337,266.664,151.125,266.664z" fill="#2D86BA"/><path d="M255.87,150.402c0,57.851-46.894,104.741-104.745,104.741S46.38,208.253,46.38,150.402   c0-57.852,46.894-104.75,104.745-104.75S255.87,92.55,255.87,150.402z" fill="#2D86BA"/><polygon fill="#FFFFFF" points="198.497,159.55 173.681,159.55 173.681,223.303 128.569,223.303 128.569,159.55 103.753,159.55    128.569,116.313 128.569,116.111 128.674,116.111 150.832,77.497 173.271,116.111 173.677,116.111 173.677,116.837  "/></g></svg>