<?xml version="1.0" encoding="UTF-8" standalone="no"?><!DOCTYPE svg  PUBLIC '-//W3C//DTD SVG 1.1//EN'  'http://www.w3.org/Graphics/SVG/1.1/DTD/svg11.dtd'><svg enable-background="new 0 0 300 300" height="300px" id="Layer_1" version="1.1" viewBox="0 0 300 300" width="300px" xml:space="preserve" xmlns="http://www.w3.org/2000/svg" xmlns:xlink="http://www.w3.org/1999/xlink"><g><path d="M150.755,14.391c-74.78,0-135.404,60.624-135.404,135.412c0,74.78,60.624,135.408,135.404,135.408   c74.788,0,135.416-60.628,135.416-135.408C286.171,75.014,225.543,14.391,150.755,14.391z M150.755,266.065   c-64.204,0-116.263-52.06-116.263-116.263c0-64.212,52.059-116.263,116.263-116.263c64.211,0,116.263,52.051,116.263,116.263   C267.019,214.006,214.967,266.065,150.755,266.065z" fill="#2D86BA"/><path d="M255.509,149.802c0,57.852-46.897,104.746-104.75,104.746S46.018,207.654,46.018,149.802   s46.89-104.75,104.742-104.75S255.509,91.95,255.509,149.802z" fill="#2D86BA"/><polygon fill="#FFFFFF" points="173.312,183.364 173.312,184.085 172.905,184.085 150.466,222.699 128.312,184.085    128.195,184.085 128.195,183.888 103.387,140.65 128.195,140.65 128.195,76.901 173.319,76.901 173.319,140.654 198.132,140.654     "/></g></svg>