<?xml version="1.0" encoding="UTF-8" standalone="no"?>
<!DOCTYPE svg PUBLIC "-//W3C//DTD SVG 1.0//EN"
"http://www.w3.org/TR/2001/REC-SVG-20010904/DTD/svg10.dtd">
<!-- Created with Inkscape ("http://www.inkscape.org/") -->
<svg
   xmlns="http://www.w3.org/2000/svg"
   xmlns:xlink="http://www.w3.org/1999/xlink"
   version="1.0"
   x="0"
   y="0"
   width="24.0000000"
   height="24.0000000"
   id="svg1">
  <defs
     id="defs2">
    <linearGradient
       id="a">
      <stop
         style="stop-color:#87abcf;stop-opacity:1;"
         offset="0"
         id="stop4" />
      <stop
         style="stop-color:#4474a5;stop-opacity:1;"
         offset="0.67000002"
         id="stop5" />
      <stop
         style="stop-color:#4a6f95;stop-opacity:1;"
         offset="1"
         id="stop6" />
    </linearGradient>
    <linearGradient
       x1="55.595001"
       y1="27.980000"
       x2="83.097000"
       y2="24.877001"
       id="b"
       xlink:href="#a"
       gradientUnits="userSpaceOnUse"
       gradientTransform="matrix(0.000000,0.424200,-0.497360,0.000000,25.91600,2.630000)" />
    <linearGradient
       x1="72.801003"
       y1="30.353001"
       x2="46.549000"
       y2="25.627001"
       id="c"
       xlink:href="#a"
       gradientUnits="userSpaceOnUse"
       gradientTransform="matrix(0.000000,-0.423320,-0.498000,0.000000,25.90600,69.31700)" />
  </defs>
  <path
     d="M 10.1596 4.25342 C 10.1755 3.15046 9.5681 2.16706 8.6677 1.83786 C 7.7672 1.50866 6.7889 1.91233 6.2646 2.82942 L 1.5776 10.7874 C 1.077 11.637 1.077 12.7598 1.5776 13.6094 L 6.2646 21.5674 C 6.694 22.3042 7.4278 22.7159 8.188 22.6465 C 8.9482 22.577 9.6185 22.0371 9.9448 21.2312 C 10.2711 20.4254 10.2035 19.477 9.7676 18.7454 L 5.9106 12.1984 L 9.7676 5.65142 C 10.0159 5.24231 10.1525 4.75498 10.1596 4.25342 L 10.1596 4.25342 z "
     style="font-size:12;font-weight:400;fill:url(#c);stroke:#2d4689;"
     id="path11" />
  <path
     d="M 13.9542 4.25345 C 13.9383 3.15049 14.5457 2.16709 15.4461 1.83789 C 16.3466 1.50869 17.3249 1.91236 17.8492 2.82945 L 22.5362 10.7875 C 23.0368 11.6371 23.0368 12.7599 22.5362 13.6095 L 17.8492 21.5675 C 17.4198 22.3043 16.686 22.716 15.9258 22.6466 C 15.1656 22.5771 14.4953 22.0372 14.169 21.2313 C 13.8427 20.4255 13.9103 19.4771 14.3462 18.7455 L 18.2032 12.1985 L 14.3462 5.65145 C 14.0979 5.24234 13.9613 4.75501 13.9542 4.25345 L 13.9542 4.25345 z "
     style="font-size:12;font-weight:400;fill:url(#c);stroke:#2d4689;"
     id="path577" />
</svg>
