/* XPM */
static char *info_xpm[] = {
"48 48 64 1",
" 	c None",
"B	c #E5E5EA",
"C	c #D3D5D1",
"D	c #C6C8CB",
"E	c #CFCED4",
"F	c #BFBDC1",
"G	c #C0C2BF",
"H	c #AEB2C0",
"I	c #9AA6C7",
"J	c #9AAAD8",
"K	c #879ACB",
"L	c #A7B1C8",
"M	c #BDC0CC",
"N	c #88A4E1",
"O	c #6F90E5",
"P	c #6386DF",
"Q	c #5A81DB",
"R	c #6E8AD3",
"S	c #778BC5",
"T	c #7B9DE6",
"U	c #5977D1",
"V	c #547AD2",
"W	c #5C7ECB",
"X	c #5271CB",
"Y	c #486BC5",
"Z	c #B3BFE0",
"a	c #4771C9",
"b	c #4566BF",
"c	c #EFF0F4",
"d	c #3B63C0",
"e	c #576DB9",
"f	c #F3F4F1",
"g	c #4461B3",
"h	c #627BBC",
"i	c #3F5FB7",
"j	c #7F8CBB",
"k	c #3458B3",
"l	c #E8E7E4",
"m	c #4B65AF",
"n	c #B3B3B7",
"o	c #6B82B8",
"p	c #6175B3",
"q	c #3F57A9",
"r	c #2B4BA8",
"s	c #1949AA",
"t	c #3A54B2",
"u	c #2C4BA1",
"v	c #848CAA",
"w	c #6C7CAA",
"x	c #2645A1",
"y	c #99A1BC",
"z	c #435AB9",
"0	c #B3B5B1",
"1	c #ABAAA8",
"2	c #2444A7",
"3	c #A6A5A9",
"4	c #2E41A6",
"5	c #2643AD",
"6	c #1748B0",
"7	c #2746B7",
"8	c #2E44BB",
"9	c #364FB4",
"+	c #304AB5",
"/	c #1B48BF",
"                                                ",
"                     BBCCCBB                    ",
"                 BBDEDDDDFDFFEB                 ",
"               BCGDHIJKKKKKILMFFEB              ",
"             BEDLJNOPQQQQPPQQRSIMDCB            ",
"           BCCLJTOQQQQQQPPQQQQUVWKMFCB          ",
"          BEMJTOOPQQQQQQPQQQVUVVXYWIMFB         ",
"         BEZNOOPPPPPQQPPQQQVVVVVaaaaSMFB        ",
"        BEZTOPPPPPPPQQQRROVQVVVXXaaabWLCB       ",
"       BEZOPPPPPPPPPQQJccBNVUaaaXaadddeLCB      ",
"      BEZOPPPPPPQQQQQJccccBNXXXaaabdbbbeLFB     ",
"     BEZTQQQQQQQQVVQPZfcfffZaaaaYddddddghHC     ",
"     BMNQQQQQQQVVVVVPZffcfcLaYYYbdddbggidSFB    ",
"    BDKQVQVVVVVVVVVUVJcfcfBjaYYbbbddiiiiikLF    ",
"    DLPVUVVUVUUVVVUUVQIBlBImYYbbbbgiiiikkkhnB   ",
"   BMKVXaXaXVVVXXaXaXXahopmbYbbbddgigikkkkkIB   ",
"   ELWYXXaaXaXXaaXXXaaXdbkdbYddbdiiikkkkkkqpF   ",
"  BFKUaaaXaXaaXXXaaYYVSRRRRedddkkqrsssrkkktqLB  ",
"  BMhYYYYYYYYaaaaYYYaZcBBCEokkssssssssssssurvB  ",
"  CLaYYYYYYYYYYYYYYddZlEDDFwssxxxxxxxxxxsssrpC  ",
"  CyYdbbbYYYYYYYdddziLlGG00wxxxxxxxxxxxxxsssmCB ",
"  FjbbbbbbbYbdddddksrLFFn11wxxxxxxxxxxxxxxxsqCB ",
" BFoddbbdddbdddbz2xuryFF111wxxxxxxxxxxxxxxxxuHE ",
" BGwbddddddddbdtkxxsuyFn131wxxxxxxxxxxx222xxxyC ",
" CFoigddddbddkssxxsrsy01131w2x2222xxxxxxxxxxu3C ",
" EGozggddzizkrsxxsssrv03331w222222222222xxxsuLC ",
" BModdddzzzirrxxrsssxv33333w4222242422222442uHE ",
"  Gjdbizzkkrsxxsrsr22v33331w2424222422242222qHB ",
"  Fygzzkkksxxssrrsx2xv13311w4255555522422226mCB ",
"  BHmzkkkkxxrs6rs2222v11110p4555555555555522wE  ",
"  Bnhkkkrsxssrrs6222xv11n00w455555555555555ryB  ",
"   Mvkttursssrrr22222v10nGGp457775555555555qCB  ",
"   ELgksssrsrss2s2222y00GDCw577777777555555jC   ",
"   BForrrsrsrs2222222yFGGEBo47777777787755rHB   ",
"    nHgssssrs22222556yGEEBlo87777777777755SEB   ",
"    BGvrrr2s222226669yCClBlS8777777777777qMB    ",
"     FMhs2rs2222s65+7IlBBclS777778887878+IDB    ",
"     BnHe2r222266677+ZlBlBBS887778787778jCB     ",
"      BFLg422s266577+Zllclfp78777777/87oEB      ",
"       BFyis22556++77gjjjjwq77/8888//8hEB       ",
"        BDLe2625577+8+855888///////87jEB        ",
"         BFMSr64+77777888/88///8788iJEB         ",
"          BEGyes777+/++//8////8889SEBB          ",
"            BDMyh9587888/8/888+djEEBB           ",
"              BEFHKhgt9999+zeSZBEBB             ",
"                BEEEMMHHLMMECEEBB               ",
"                   BBEFEGEBBB                   ",
"                                                "
};
