/* XPM */
static char * wiki_16_xpm[] = {
"16 16 13 1",
" 	c #181828283131",
".	c #7B7B7D7D7B7B",
"X	c #FFFFFFFFFFFF",
"o	c #BDBDBEBEBDBD",
"O	c #000000000000",
"+	c #424241414242",
"@	c #00006565DEDE",
"#	c #BDBDD7D7F7F7",
"$	c #F7F7EFEFA5A5",
"%	c #CECEE3E3F7F7",
"&	c #636361616363",
"*	c #9C9C9E9E9C9C",
"=	c #94949A9A9C9C",
"        .XXXXXXX",
"ooooooooO.XXXXXX",
"XXXXXXXXXOXXXXXX",
"XXX+XXXO.OO.XXX ",
"XXXOXXXXOO.XXXX ",
"XXXOXXXXX XXXXX ",
"XXXO@@XXXXX@@#X ",
"XXXO$$#@@#%$$$@ ",
"XXXO$$&$$$$$$$$ ",
"XXXO$$O$$$$$o$$ ",
"XXXO$$$$$$$$$$$ ",
"XXXO$$$$$.$$$$$ ",
"XXXOo$$$$&$$$&$ ",
"XXXO$$$O$$$*&$$ ",
"XXXO$$+$$.$$$$$ ",
"XXX=          +X"};
