<?xml version="1.0" encoding="UTF-8"?>
<svg xmlns="http://www.w3.org/2000/svg" version="1.1" height="100" width="100">

  <path style="fill:#777777;stroke:#222222;stroke-width:2.5px;" d="m 43,2 -2,10 -11,5 -8,-6 -10,10 6,9 -4,11 -11,2 0,13 11,2 4,10 -6,10 10,10 9,-6 10,4 2,11 14,0 2,-12 8,-4 10,7 L 87,79 80,68 85,59 97,57 97,43 85,41 82,31 88,21 78,11 69,17 58,12 56,2 z m 6,20 C 63,22 75,34 75,48 75,63 63,74 49,74 35,74 23,63 23,48 23,34 35,22 49,22 z"/>
  <path style="fill:#35ff35;stroke:#222222;stroke-width:4;" d="M 28.3859 36.2836 C 31.4347 41.2085 47.1498 77.4592 49.721 94.091 C 54.0385 83.3526 53.3084 65.2675 84.466 13.3514 C 73.4692 23.3633 58.155 44.1137 47.3665 59.293 C 44.3174 54.3682 38.2193 44.5184 28.3859 36.2836 z"/>
</svg>
