/* XPM */
static char *seclevel_7_xpm[] = {
"16 16 8 1",
" 	c None",
"1	c #136C00",
"2	c #0E5E00",
"3	c #324D00",
"4	c #433C00",
"5	c #572800",
"6	c #681700",
"7	c #7E0100",
"4              4",
"4777777777777774",
"4777777777777774",
"4777777777777774",
"4777777777777774",
"4777777777777774",
"4777777777777774",
"4777777777777774",
"4777777777777774",
"4777777777777774",
"4777777777777774",
"4777777777777774",
"4777777777777774",
"4777777777777774",
" 47777777777774 ",
"  444444444444  "
};
