/* XPM */
static char *mini_xpm[] = {
"22 22 16 1",
" 	c None",
"1	c #33C01D",
"2	c #94B9BF",
"3	c #2641C6",
"4	c #111A4E",
"5	c #6EC577",
"6	c #5896BE",
"7	c #FA7C0A",
"8	c #4363CA",
"9	c #4BBE3C",
"A	c #284DDD",
"B	c #32BD1C",
"C	c #3D4B83",
"D	c #86D37A",
"E	c #120D6F",
"F	c #489378",
"      E44E    7777    ",
"    4F222F84 777777   ",
"  48222222DF777  777  ",
" 4C222222DD777    777 ",
" E66222DDD7778E    777",
" C6662DD5DDD594    777",
"48888F66555555C     77",
"E8A8918FF55556C    777",
"E3AF1111B99688E    777",
"E3AFB11BB88AAAE   777 ",
" EAAF911118AA3E  777  ",
" E3AAAB119AAAE  777   ",
"  E3AAF1188AE4  777   ",
"   ECAF193CE4  777    ",
"    4EECEEE    777    ",
"              777     ",
"              777     ",
"              777     ",
"                      ",
"               7      ",
"              777     ",
"              777     "
};
