<?xml version="1.0" encoding="iso-8859-1"?>
<!-- Generator: Adobe Illustrator 18.0.0, SVG Export Plug-In . SVG Version: 6.00 Build 0)  -->
<!DOCTYPE svg PUBLIC "-//W3C//DTD SVG 1.1//EN" "http://www.w3.org/Graphics/SVG/1.1/DTD/svg11.dtd">
<svg version="1.1" id="Capa_1" xmlns="http://www.w3.org/2000/svg" xmlns:xlink="http://www.w3.org/1999/xlink" x="0px" y="0px"
	 viewBox="0 0 491.682 491.682" style="enable-background:new 0 0 491.682 491.682;" xml:space="preserve">
<g>
	<path d="M468.329,189.388C425.714,96.78,259.246,28.905,160.927,55.861c-4.605,1.268-8.709,2.877-12.813,4.483
		c1.648-0.071,3.292-0.354,4.942-0.354c68.217,0,128.591,61.844,140.438,143.874c6.212,42.957-1.581,85.382-21.956,119.467
		c-20.704,34.631-51.85,56.548-87.716,61.719c-5.309,0.778-10.712,1.167-16.064,1.167c-3.233,0-6.417-0.271-9.617-0.539
		c6.182,8.175,12.597,15.365,19.249,21.606c43.963,41.215,110.498,46.007,160.002,11.662
		c35.221-24.422,81.906-50.276,126.438-54.847c7.13-0.735,13.324-5.313,16.098-11.922
		C499.331,306.064,494.199,245.64,468.329,189.388z"/>
	<path d="M181.507,369.004c30.941-4.468,57.97-23.645,76.107-53.991c18.455-30.899,25.506-69.545,19.819-108.826
		C266.74,132.086,213.255,76.211,153.057,76.211c-4.547,0-9.143,0.325-13.735,0.982c-12.5,1.806-24.301,6.123-35.185,12.489
		c52.88-2.234,100.52,45.119,109.624,108.305c4.676,32.326-1.203,64.281-16.553,89.959c-15.684,26.228-39.321,42.839-66.568,46.761
		c-4.072,0.586-8.158,0.878-12.197,0.878c-12.5,0-24.651-2.787-36.01-7.825C108.494,357.731,144.231,374.406,181.507,369.004z"/>
	<path d="M128.327,318.65c22.32-3.215,41.84-17.079,54.956-39.028c13.452-22.495,18.567-50.661,14.419-79.312
		c-7.78-53.904-46.529-94.545-90.142-94.545c-3.281,0-6.577,0.229-9.889,0.703c-12.813,1.855-24.381,7.297-34.36,15.287
		c32.158,2.83,59.628,32.533,65.222,71.368c6.432,44.527-18.283,85.082-55.066,90.395c-2.708,0.396-5.422,0.589-8.111,0.589
		c-4.675,0-9.253-0.689-13.734-1.792C70.804,308.037,98.988,322.903,128.327,318.65z"/>
	<path d="M71.721,271.479c30.149-4.357,50.237-38.725,44.772-76.61c-5.039-34.917-30.084-61.248-58.253-61.248
		c-2.107,0-4.229,0.153-6.366,0.46c-1.857,0.271-3.584,0.967-5.372,1.459c12.215,7.676,21.704,22.71,24.335,40.965
		c4.135,28.58-10.047,54.372-31.591,57.491c-1.476,0.207-2.931,0.318-4.388,0.318c-9.127,0-17.746-4.222-24.903-11.112
		C19.191,254.126,44.472,275.329,71.721,271.479z"/>
	<path d="M38.075,225.968c17.14-2.48,28.229-24.155,24.744-48.306c-3.263-22.549-17.979-39.556-34.218-39.556
		c-1.06,0-2.123,0.071-3.202,0.229c-17.138,2.487-28.243,24.162-24.76,48.32C4.08,210.331,21.043,228.483,38.075,225.968z"/>
</g>
<g>
</g>
<g>
</g>
<g>
</g>
<g>
</g>
<g>
</g>
<g>
</g>
<g>
</g>
<g>
</g>
<g>
</g>
<g>
</g>
<g>
</g>
<g>
</g>
<g>
</g>
<g>
</g>
<g>
</g>
</svg>
