<?xml version="1.0" encoding="UTF-8" standalone="no"?>
<!DOCTYPE svg PUBLIC "-//W3C//DTD SVG 20010904//EN"
"http://www.w3.org/TR/2001/REC-SVG-20010904/DTD/svg10.dtd">
<!-- Created with Inkscape ("http://www.inkscape.org/") -->
<svg
   version="1.0"
   x="0"
   y="0"
   width="320"
   height="320"
   viewBox="0 0 320 320"
   id="svg3462"
   inkscape:version="0.36"
   sodipodi:docname="/mnt/sda5/www/hostgator/public_html/easy/easy-orange.svg"
   sodipodi:version="0.32"
   sodipodi:docbase="/mnt/sda5/www/hostgator/public_html/easy"
   xmlns="http://www.w3.org/2000/svg"
   xmlns:inkscape="http://www.inkscape.org/namespaces/inkscape"
   xmlns:sodipodi="http://sodipodi.sourceforge.net/DTD/sodipodi-0.dtd"
   xmlns:rdf="http://www.w3.org/1999/02/22-rdf-syntax-ns#"
   xmlns:dc="http://purl.org/dc/elements/1.1/"
   xmlns:cc="http://creativecommons.org/ns#"
   xmlns:xlink="http://www.w3.org/1999/xlink">
  <sodipodi:namedview
     pagecolor="#ffffff"
     bordercolor="#666666"
     borderopacity="1"
     objecttolerance="10"
     gridtolerance="10"
     guidetolerance="10"
     inkscape:pageopacity="0"
     inkscape:pageshadow="2"
     inkscape:window-width="1366"
     inkscape:window-height="718"
     id="namedview3466"
     showgrid="false"
     inkscape:zoom="1.675"
     inkscape:cx="63.58209"
     inkscape:cy="160"
     inkscape:window-x="0"
     inkscape:window-y="0"
     inkscape:window-maximized="1"
     inkscape:current-layer="svg3462" />
  <metadata
     id="metadata3468">
    <rdf:RDF>
      <cc:Work
         rdf:about="">
        <dc:format>image/svg+xml</dc:format>
        <dc:type
           rdf:resource="http://purl.org/dc/dcmitype/StillImage" />
        <dc:title />
      </cc:Work>
    </rdf:RDF>
  </metadata>
  <defs
     id="defs3466" />
  <path
     d="M 218.024 315.522 C 211.149 314.776 205.025 314.128 204.414 314.083 C 203.803 314.037 201.69 312.905 199.718 311.566 C 196.144 309.141 196.106 309.138 187.329 310.563 C 176.911 312.254 152.871 312.445 142.716 310.918 C 88.2244 302.723 42.8707 267.164 22.5111 216.673 C 15.4099 199.063 12.0251 180.769 12.0251 159.999 C 12.0251 144.322 12.9991 136.258 16.6635 121.594 C 29.7987 69.0316 73.0564 25.7736 125.619 12.6384 C 140.283 8.974 148.347 8 164.024 8 C 179.673 8 187.768 8.9747 202.324 12.6115 C 220.243 17.0887 237.446 25.1047 252.601 36.0386 C 260.628 41.8301 260.704 41.8593 265.101 40.8476 C 270.722 39.5542 278.385 40.4155 285.754 43.1688 C 293.1 45.9137 302.529 55.0799 306.346 63.1882 C 312.136 75.4842 312.545 79.6432 311.683 117.499 C 311.621 120.249 312.376 126.099 313.362 130.499 C 317.153 147.425 317.065 176.386 313.178 191.45 L 311.126 199.401 L 315.434 204.006 C 317.803 206.538 320.35 210.386 321.093 212.555 C 323.2 218.7 322.77 227.829 320.114 233.314 C 317.65 238.404 311.68 243.999 308.713 243.999 C 307.616 243.999 307.072 244.51 307.381 245.249 C 312.015 256.309 312.004 266.748 307.349 275.849 C 305.76 278.957 303.089 282.398 301.413 283.497 C 298.603 285.338 298.4 285.854 298.808 290.101 C 299.422 296.492 296.796 304.738 292.577 309.667 C 289.531 313.226 288.212 313.943 282.79 314.989 C 273.383 316.803 232.912 317.136 218.024 315.522 L 218.024 315.522 z "
     style="font-size:12;fill-rule:evenodd;"
     id="path565" />
  <path
     d="M 275.051 308.943 C 279.711 308.361 284.575 307.201 285.858 306.365 C 289.112 304.244 291.976 297.403 292.002 291.689 L 292.024 286.878 L 284.774 287.689 C 273.838 288.912 242.267 288.366 226.923 286.69 C 212.551 285.12 208.142 283.635 205.392 279.438 L 203.741 276.917 L 201.424 279.094 C 197.757 282.538 196.423 290.42 198.372 297.124 C 201.1 306.507 203.003 307.361 225.524 309.316 C 235.136 310.15 267.313 309.908 275.051 308.943 L 275.051 308.943 z "
     style="font-size:12;fill:#ff9900;fill-rule:evenodd;fill-opacity:1;"
     id="path566" />
  <path
     d="M 185.333 305.895 C 189.288 305.287 192.65 304.674 192.802 304.533 C 192.955 304.392 192.57 302.977 191.946 301.388 C 191.322 299.799 190.441 293.999 189.989 288.499 C 189.537 282.999 188.715 274.899 188.164 270.499 C 187.612 266.099 186.866 257.289 186.505 250.922 L 185.849 239.344 L 177.033 242.655 C 143.172 255.373 106.826 248.213 75.5244 222.657 C 67.3984 216.022 50.9637 199.72 49.4157 196.758 C 47.7117 193.498 48.4937 189.354 51.0747 187.973 C 55.7194 185.487 57.8484 186.683 69.3594 198.249 C 84.4354 213.398 97.4484 222.662 112.361 228.864 C 133.449 237.634 157.42 236.807 179.631 226.546 L 186.872 223.2 L 187.505 218.35 C 189.623 202.107 193.933 188.018 197.779 184.764 C 198.601 184.068 202.03 182.564 205.399 181.422 C 211.184 179.459 211.572 179.126 212.378 175.422 C 215.2 162.46 220.19 156.622 229.435 155.467 C 232.509 155.083 235.023 154.483 235.021 154.134 C 235.019 153.785 233.451 145.624 231.537 135.999 C 224.778 102.015 224.59 82.8722 230.885 69.5366 C 234.925 60.9774 241.978 52.161 248.514 47.5 L 254.122 43.5 L 251.323 41.1995 C 245.909 36.7493 230.421 28.0221 220.851 24.0294 C 209.648 19.355 196.052 15.6072 184.211 13.9293 C 173.164 12.3641 144.014 13.2813 134.044 15.5079 C 104.528 22.0994 80.9824 34.9565 59.9734 55.9547 C 28.8027 87.1082 14.0064 126.955 17.1598 171.248 C 21.9307 238.263 72.9284 294.192 139.524 305.444 C 149.436 307.119 175.684 307.377 185.333 305.895 L 185.333 305.895 z "
     style="font-size:12;fill:#ff9900;fill-rule:evenodd;fill-opacity:1;"
     id="path567" />
  <path
     d="M 180.31 166.614 C 153.75 157.902 145.556 126.037 164.837 106.437 C 167.415 103.816 171.999 100.508 175.024 99.0862 C 179.794 96.8432 181.853 96.4992 190.524 96.4992 C 199.42 96.4992 201.146 96.8042 206.149 99.2622 C 212.763 102.51 220.354 110.23 223.151 116.552 C 231.263 134.891 223.322 156.48 205.456 164.66 C 198.628 167.785 186.707 168.712 180.31 166.614 L 180.31 166.614 z "
     style="font-size:12;fill-rule:evenodd;"
     id="path568" />
  <path
     d="M 201.382 161.393 C 207.884 159.178 216.189 151.369 219.005 144.822 C 225.787 129.058 220.047 112.337 205.024 104.088 C 199.075 100.822 197.846 100.522 190.524 100.552 C 184.565 100.576 181.332 101.124 177.849 102.702 C 170.875 105.862 164.713 112.074 161.542 119.14 C 159.083 124.62 158.836 126.143 159.234 133.388 C 159.547 139.1 160.328 142.756 161.872 145.749 C 163.078 148.087 164.18 149.999 164.321 149.999 C 164.462 149.999 164.405 148.189 164.194 145.977 C 163.6 139.749 164.838 135.281 168.229 131.419 C 179.059 119.084 199.086 122.535 204.055 137.593 C 206.876 146.14 202.531 156.231 194.117 160.673 L 189.71 162.999 L 193.189 162.999 C 195.103 162.999 198.789 162.277 201.382 161.393 L 201.382 161.393 z "
     style="font-size:12;fill:#ffffff;fill-rule:evenodd;"
     id="path569" />
  <path
     d="M 102.676 143.506 C 86.8483 139.309 69.6383 136.074 63.0633 136.06 C 50.8413 136.034 50.8343 136.333 63.4063 122.917 L 74.5913 110.983 L 84.1343 111.594 C 89.3833 111.931 98.5603 113.331 104.526 114.706 C 110.494 116.082 115.518 117.065 115.69 116.89 C 115.863 116.716 110.235 110.498 103.182 103.073 L 90.3613 89.5731 L 96.0193 87.7591 L 101.676 85.9461 L 108.633 93.7591 C 112.459 98.0567 120.215 106.232 125.868 111.925 C 135.442 121.567 136.05 122.415 134.74 124.286 C 132.048 128.129 113.894 146.073 112.789 145.983 C 112.177 145.933 107.626 144.818 102.676 143.506 L 102.676 143.506 z "
     style="font-size:12px;fill-rule:evenodd;"
     id="path570"
     inkscape:connector-curvature="0" />
  <path
     d="M 287.33 279.826 C 297.85 278.481 300.223 276.928 302.574 269.85 C 304.578 263.816 304.161 254.099 301.694 249.327 L 300.1 246.246 L 280.268 246.762 C 261.057 247.262 234.527 245.982 221.157 243.91 C 215.824 243.084 214.388 243.186 212.323 244.539 C 208.772 246.866 206.071 253.53 206.056 259.999 C 206.042 266.339 209.625 275.18 212.924 276.946 C 217.557 279.425 250.067 282.067 267.524 281.383 C 273.574 281.146 282.487 280.445 287.33 279.826 L 287.33 279.826 z "
     style="font-size:12;fill:#ff9900;fill-rule:evenodd;fill-opacity:1;"
     id="path571" />
  <path
     d="M 199.371 263.568 C 198.552 253.878 200.756 246.267 205.862 241.162 L 209.62 237.403 L 207.84 234.46 C 200.536 222.385 204.907 205.964 216.859 200.574 L 220.764 198.813 L 217.493 193.953 C 215.694 191.279 214.03 188.515 213.794 187.809 C 213.458 186.799 212.185 186.899 207.813 188.277 C 202.614 189.916 202.118 190.355 200.063 195.131 C 195.401 205.969 194.603 212.695 194.562 241.499 C 194.541 256.349 194.883 269.787 195.322 271.362 C 196.089 274.117 196.191 274.159 198.048 272.478 C 199.735 270.952 199.901 269.835 199.371 263.568 L 199.371 263.568 z "
     style="font-size:12;fill:#ff9900;fill-rule:evenodd;fill-opacity:1;"
     id="path572" />
  <path
     d="M 302.024 237.992 C 309.541 236.702 312.23 234.647 314.632 228.357 C 317.255 221.488 314.681 210.786 309.606 207.461 C 305.451 204.738 288.852 203.708 259.594 204.358 C 223.801 205.152 219.587 205.717 215.404 210.282 C 209.637 216.575 210.09 227.265 216.39 233.565 C 219.826 237.001 220.006 237.037 244.024 239.052 C 256.459 240.096 293.734 239.414 302.024 237.992 L 302.024 237.992 z "
     style="font-size:12;fill:#ff9900;fill-rule:evenodd;fill-opacity:1;"
     id="path573" />
  <path
     d="M 297.524 194.753 C 303.192 193.569 303.649 193.252 305.774 189.038 C 310.06 180.538 307.61 165.313 301.587 163.023 C 289.451 158.409 230.236 159.783 224.683 164.808 C 221.427 167.755 220.024 171.724 220.024 177.99 C 220.024 184.599 222.596 191.165 225.872 192.918 C 226.885 193.46 232.621 194.378 238.619 194.957 C 244.617 195.537 251.099 196.194 253.024 196.418 C 259.686 197.194 291.549 196.002 297.524 194.753 L 297.524 194.753 z "
     style="font-size:12;fill:#ff9900;fill-rule:evenodd;fill-opacity:1;"
     id="path574" />
  <path
     d="M 310.77 149.086 C 310.001 132.397 308.866 131.242 306.218 144.455 L 304.088 155.084 L 307.306 158.013 C 309.076 159.623 310.703 160.954 310.922 160.97 C 311.14 160.986 311.072 155.638 310.77 149.086 L 310.77 149.086 z "
     style="font-size:12;fill:#ff9900;fill-rule:evenodd;fill-opacity:1;"
     id="path575" />
  <path
     d="M 298.993 143.499 C 303.76 121.189 305.215 110.471 305.306 96.9992 C 305.442 76.9862 302.467 66.7756 293.744 57.3111 C 277.214 39.3786 250.001 46.4047 237.917 71.7256 C 231.434 85.3082 232.344 106.717 241.158 147.999 L 242.333 153.499 L 269.594 153.499 L 296.856 153.499 L 298.993 143.499 z "
     style="font-size:12;fill:#ff9900;fill-rule:evenodd;fill-opacity:1;"
     id="path576" />
</svg>
