/* XPM */
static char * xsane_32x32_xpm[] = {
"32 32 201 2",
"  	c None",
". 	c #020206",
"+ 	c #3E3A2A",
"@ 	c #5E5A42",
"# 	c #9A926E",
"$ 	c #DED6B2",
"% 	c #2A36FE",
"& 	c #161EFA",
"* 	c #B6AE86",
"= 	c #323EFE",
"- 	c #465AFE",
"; 	c #D2CAA2",
"> 	c #161612",
", 	c #3E4AEA",
"' 	c #C6BE96",
") 	c #726A52",
"! 	c #96AAFE",
"~ 	c #3236D6",
"{ 	c #7E8AFA",
"] 	c #7E765A",
"^ 	c #A2B6FE",
"/ 	c #A69E7A",
"( 	c #F2F2DE",
"_ 	c #322E22",
": 	c #BEB68E",
"< 	c #4E4A36",
"[ 	c #3A3E9A",
"} 	c #C2D2FE",
"| 	c #969AE6",
"1 	c #EAE6C6",
"2 	c #8A8262",
"3 	c #6262BA",
"4 	c #423E6E",
"5 	c #1E2266",
"6 	c #AEA67E",
"7 	c #CEC69E",
"8 	c #E6E2BE",
"9 	c #12120E",
"0 	c #2E2A1E",
"a 	c #3646FE",
"b 	c #86829E",
"c 	c #968E6A",
"d 	c #1E22FA",
"e 	c #C2BA92",
"f 	c #DEEAFA",
"g 	c #5A563E",
"h 	c #566AFE",
"i 	c #222216",
"j 	c #D6CEA6",
"k 	c #464232",
"l 	c #BAB28A",
"m 	c #222AFA",
"n 	c #DEDABA",
"o 	c #9E9672",
"p 	c #0E0E0A",
"q 	c #928A66",
"r 	c #B2A67E",
"s 	c #3A4AFE",
"t 	c #CAC29A",
"u 	c #363226",
"v 	c #524E3A",
"w 	c #222EFA",
"x 	c #A29A8A",
"y 	c #DED2AE",
"z 	c #726E52",
"A 	c #F6F6F6",
"B 	c #4E62FE",
"C 	c #1E1E16",
"D 	c #867E5E",
"E 	c #CECAB6",
"F 	c #3E52FE",
"G 	c #4E56EA",
"H 	c #F2EED6",
"I 	c #C6BA92",
"J 	c #E6DEBA",
"K 	c #A29672",
"L 	c #AAA27A",
"M 	c #B2AA82",
"N 	c #C2B68E",
"O 	c #D2C69E",
"P 	c #A29A76",
"Q 	c #5E72FE",
"R 	c #423E2E",
"S 	c #7A7256",
"T 	c #CABE96",
"U 	c #A2AAFA",
"V 	c #928666",
"W 	c #060606",
"X 	c #1A1612",
"Y 	c #EAE2CE",
"Z 	c #BAAE86",
"` 	c #867A5E",
" .	c #CEC29A",
"..	c #AEA27E",
"+.	c #DAD2AA",
"@.	c #D6CAA2",
"#.	c #8E8666",
"$.	c #BEB28A",
"%.	c #262EFA",
"&.	c #B6AA82",
"*.	c #625A46",
"=.	c #D6CEAE",
"-.	c #4A4632",
";.	c #56523E",
">.	c #7E7A62",
",.	c #EEE6CE",
"'.	c #564E46",
").	c #EAE2C2",
"!.	c #BAAE8A",
"~.	c #E6DABA",
"{.	c #3E362A",
"].	c #4652FE",
"^.	c #A69A76",
"/.	c #1E1A16",
"(.	c #3A3626",
"_.	c #625E46",
":.	c #C2B692",
"<.	c #9A8E6E",
"[.	c #968A6A",
"}.	c #B6AA86",
"|.	c #2632FA",
"1.	c #BEB28E",
"2.	c #E2DABE",
"3.	c #D2C6A6",
"4.	c #E2D6B2",
"5.	c #FAFAF6",
"6.	c #D6CAA6",
"7.	c #CABE9A",
"8.	c #3242FE",
"9.	c #827A5E",
"0.	c #26261E",
"a.	c #4256FE",
"b.	c #1A1A12",
"c.	c #AA9E7A",
"d.	c #5E5642",
"e.	c #2A32FA",
"f.	c #EEE6CA",
"g.	c #16120E",
"h.	c #DACEAA",
"i.	c #4A4232",
"j.	c #E2DAB6",
"k.	c #4A5EFE",
"l.	c #A6BAFE",
"m.	c #42426A",
"n.	c #5266FE",
"o.	c #EEEACE",
"p.	c #9E9272",
"q.	c #524A3A",
"r.	c #AEA682",
"s.	c #D2C6A2",
"t.	c #463E2E",
"u.	c #7E7256",
"v.	c #DED2B6",
"w.	c #E6DEC2",
"x.	c #AAA282",
"y.	c #EAE2C6",
"z.	c #E2D6BA",
"A.	c #564E3A",
"B.	c #221E16",
"C.	c #D6CEAA",
"D.	c #E2DABA",
"E.	c #8A8266",
"F.	c #3A362A",
"G.	c #CEC29E",
"H.	c #82765A",
"I.	c #C6D2FA",
"J.	c #26221A",
"K.	c #4252FE",
"L.	c #665A46",
"M.	c #DACEAE",
"N.	c #827A66",
"O.	c #665E46",
"P.	c #3E3A2E",
"Q.	c #B6AE8A",
"R.	c #BEB692",
"S.	c #CEC6A2",
"T.	c #928A6A",
"U.	c #C6BA96",
"V.	c #A29676",
"W.	c #AAA27E",
"X.	c #DED6B6",
"Y.	c #E6DEBE",
"Z.	c #A69A7A",
"`.	c #968E6E",
" +	c #B2A682",
".+	c #423E32",
"++	c #D6CAAA",
"@+	c #E6E2C2",
"#+	c #5A5642",
"$+	c #9E9676",
"%+	c #867E62",
"&+	c #B2AA86",
"*+	c #AA9E7E",
"=+	c #464236",
"-+	c #0E0E0E",
";+	c #DED2B2",
">+	c #DAD2AE",
",+	c #4A4636",
"'+	c #5E5646",
")+	c #161212",
"!+	c #564E3E",
"                                                                ",
"                W.Y.1 $ T 7.j.j $ C.' I t 6. .                  ",
"            E Y.$ O &.' ; I T I 6 I ; N N T 6 T  .r.            ",
"        1 X.O 7.I I  +N I I e N }.N I T N :.Z N I T !.*+        ",
"      2.I T Z t 7 Z &.: Z }.t Z r I $.T 7 Z &.T $.T t * c u.    ",
"    1 C.I N $.e $.I I $.&.1.&.!.&...6 l $.I I 1.$.I $.I N `.<   ",
"  y.4.7.&+1.N !.$.' ..^.` i.0 J.B./._ R O.p.W.N I Z $.I K $._.  ",
"  1 S.I 7 I : N x.;.;.9                     [.!.: I t l j e # X ",
"  ,.T N W.I T }..                             1 j T Z I W.I N C ",
"  J s.I Z I N Z F.                          j.w.I N I I }.I &.g.",
"  +.j.$.r :.&.T Z g                       M 2 2 ^.I T Z &.N p.W ",
"    ;+7 N I $.I I V.)                           A.%+[.: I I S   ",
"      ; : I I !.' T / H.                              ` ..N b.  ",
"      O ; 1.!.N e 2 !+{.        R.O x       ).l         V T..   ",
"      $.Z :.T o /..       ).).$ I @.j ; I &.  1.7 M       0     ",
"        Z W.=+)+    o.j.j T Q.1.!.N N :  .: `.9.Z e N P         ",
"                  $ D g < (.+ _ _ + < d.] T.W.S   N 7 N #.@     ",
"                E.C         ~.++p.N K       k *._   G.7 I `.    ",
"                          3.q.5 w 4 / 6               s.T e R   ",
"                        v.m.e.].s K.% b R             s.O N q   ",
"                      Y.) m |.a.l.n.d , 6./.          D.r $.&.0 ",
"          M.#+        y.W e.F } 5.I.^ k.@+z           z.N I I -.",
"      Y ).F.          $.. %.h A 5.5.Q m H D           D.I Z I < ",
"    1 =.+             y '.= = ! f { B |.@+-+        ( t T N W./.",
"  1 1 e 0.              7 [ - a h |.& | <         8 >+7 T @.#.. ",
"  ; j :.c.$+            [.<.3 ~ 8.G U N..     f.y.7 $.:.T ^.9   ",
"    j 7.c.&.r...            2 I I V.b..   Y.h.G.Z N T I r..+    ",
"      $.r.* t t 6.I &.U.j @.j.j >.j.y.$ n s.$.I ; I 7 P P.      ",
"      <.^.L ' I N  .$.6 t t T @.e }.7 T I 7 $...I N 2 >         ",
"          E.q P Z Z N N Z Z I !.I N Q.}.N Z Z p.'+F..           ",
"                v S p.}.o ..N N I T W.Z.<.L.i W                 ",
"                      u F.P.F.,+i.t.(./.p                       "};
