<?xml version="1.0" encoding="UTF-8" standalone="no"?>
<svg
   xmlns:dc="http://purl.org/dc/elements/1.1/"
   xmlns:cc="http://creativecommons.org/ns#"
   xmlns:rdf="http://www.w3.org/1999/02/22-rdf-syntax-ns#"
   xmlns:svg="http://www.w3.org/2000/svg"
   xmlns="http://www.w3.org/2000/svg"
   xmlns:xlink="http://www.w3.org/1999/xlink"
   xmlns:sodipodi="http://sodipodi.sourceforge.net/DTD/sodipodi-0.dtd"
   xmlns:inkscape="http://www.inkscape.org/namespaces/inkscape"
   version="1.1"
   height="106.07027"
   width="188.46434"
   id="svg6"
   sodipodi:docname="scan-android2.svg"
   inkscape:version="0.92.2 5c3e80d, 2017-08-06">
  <metadata
     id="metadata12">
    <rdf:RDF>
      <cc:Work
         rdf:about="">
        <dc:format>image/svg+xml</dc:format>
        <dc:type
           rdf:resource="http://purl.org/dc/dcmitype/StillImage" />
        <dc:title></dc:title>
      </cc:Work>
    </rdf:RDF>
  </metadata>
  <defs
     id="defs10" />
  <sodipodi:namedview
     pagecolor="#ffffff"
     bordercolor="#666666"
     borderopacity="1"
     objecttolerance="10"
     gridtolerance="10"
     guidetolerance="10"
     inkscape:pageopacity="0"
     inkscape:pageshadow="2"
     inkscape:window-width="1560"
     inkscape:window-height="936"
     id="namedview8"
     showgrid="false"
     inkscape:zoom="2.36"
     inkscape:cx="-24.125058"
     inkscape:cy="15.606084"
     inkscape:window-x="0"
     inkscape:window-y="0"
     inkscape:window-maximized="0"
     inkscape:current-layer="svg6" />
  <path
     style="fill:#6597bb;stroke:#041e31;stroke-width:3"
     d="m 90.696976,65.494806 c -10,20 -28,34 -45,34 -16,0 -29,-7 -33,-17 l -10,11 v -37 h 35 l -11,10 c 0,0 5,14 26,14 16,0 38,-15 38,-15 z"
     id="path2"
     inkscape:connector-curvature="0" />
  <path
     style="fill:#6597bb;stroke:#041e31;stroke-width:3"
     d="m 2.696976,41.494806 c 6,-20 27,-33.9999996 44,-33.9999996 16,0 29,6.9999996 36,16.9999996 l 10,-11 v 37 h -38 l 11,-10 c 0,0 -5,-14 -26,-14 -16,0 -37,15 -37,15 z"
     id="path4"
     inkscape:connector-curvature="0" />
  <g
     id="g3821"
     transform="matrix(0.30809506,0,0,0.30809506,143.29761,21.46737)"
     style="fill:#009400;fill-opacity:1">
    <g
       id="g3789"
       style="fill:#009400;fill-opacity:1">
      <use
         id="use3774"
         xlink:href="#b"
         style="stroke:#ffffff;stroke-width:14.39999962;fill:#009400;fill-opacity:1"
         x="0"
         y="0"
         width="100%"
         height="100%" />
      <use
         id="use3776"
         transform="scale(-1,1)"
         xlink:href="#a"
         x="0"
         y="0"
         width="100%"
         height="100%"
         style="fill:#009400;fill-opacity:1" />
      <g
         id="a"
         style="stroke:#ffffff;stroke-width:7.19999981;fill:#009400;fill-opacity:1">
        <rect
           id="rect3778"
           x="14"
           y="-86"
           width="13"
           height="86"
           transform="rotate(29)"
           rx="6.5"
           style="fill:#009400;fill-opacity:1" />
        <rect
           x="-143"
           y="41"
           width="48"
           height="133"
           rx="24"
           id="c"
           style="fill:#009400;fill-opacity:1" />
        <use
           id="use3781"
           xlink:href="#c"
           x="85"
           y="97"
           width="100%"
           height="100%"
           style="fill:#009400;fill-opacity:1" />
      </g>
      <g
         id="b"
         style="fill:#009400;fill-opacity:1">
        <ellipse
           id="ellipse3784"
           ry="84"
           rx="91"
           cy="41"
           cx="0"
           style="fill:#009400;fill-opacity:1" />
        <rect
           id="rect3786"
           x="-91"
           y="20"
           width="182"
           height="182"
           rx="22"
           style="fill:#009400;fill-opacity:1" />
      </g>
    </g>
    <g
       id="g3797"
       style="fill:#009400;stroke:#ffffff;stroke-width:7.19999981;fill-opacity:1">
      <path
         id="path3791"
         d="M -95,44.5 H 95"
         inkscape:connector-curvature="0"
         style="fill:#009400;fill-opacity:1" />
      <circle
         id="circle3793"
         r="4"
         cx="-42"
         cy="0"
         style="fill:#009400;fill-opacity:1" />
      <circle
         id="circle3795"
         r="4"
         cx="42"
         cy="0"
         style="fill:#009400;fill-opacity:1" />
    </g>
  </g>
</svg>
