<?xml version="1.0" encoding="UTF-8"?>

<svg version="1.2" baseProfile="tiny" width="56.49mm" height="28.49mm" viewBox="9435 12673 5649 2849" preserveAspectRatio="xMidYMid" fill-rule="evenodd" stroke-width="28.222" stroke-linejoin="round" xmlns="http://www.w3.org/2000/svg" xmlns:ooo="http://xml.openoffice.org/svg/export" xmlns:xlink="http://www.w3.org/1999/xlink" xmlns:presentation="http://sun.com/xmlns/staroffice/presentation" xmlns:smil="http://www.w3.org/2001/SMIL20/" xmlns:anim="urn:oasis:names:tc:opendocument:xmlns:animation:1.0" xml:space="preserve">
 <defs class="ClipPathGroup">
  <clipPath id="presentation_clip_path" clipPathUnits="userSpaceOnUse">
   <rect x="9435" y="12673" width="5649" height="2849"/>
  </clipPath>
 </defs>
 <defs class="TextShapeIndex">
  <g ooo:slide="id1" ooo:id-list="id3 id4"/>
 </defs>
 <defs class="EmbeddedBulletChars">
  <g id="bullet-char-template(57356)" transform="scale(0.00048828125,-0.00048828125)">
   <path d="M 580,1141 L 1163,571 580,0 -4,571 580,1141 Z"/>
  </g>
  <g id="bullet-char-template(57354)" transform="scale(0.00048828125,-0.00048828125)">
   <path d="M 8,1128 L 1137,1128 1137,0 8,0 8,1128 Z"/>
  </g>
  <g id="bullet-char-template(10146)" transform="scale(0.00048828125,-0.00048828125)">
   <path d="M 174,0 L 602,739 174,1481 1456,739 174,0 Z M 1358,739 L 309,1346 659,739 1358,739 Z"/>
  </g>
  <g id="bullet-char-template(10132)" transform="scale(0.00048828125,-0.00048828125)">
   <path d="M 2015,739 L 1276,0 717,0 1260,543 174,543 174,936 1260,936 717,1481 1274,1481 2015,739 Z"/>
  </g>
  <g id="bullet-char-template(10007)" transform="scale(0.00048828125,-0.00048828125)">
   <path d="M 0,-2 C -7,14 -16,27 -25,37 L 356,567 C 262,823 215,952 215,954 215,979 228,992 255,992 264,992 276,990 289,987 310,991 331,999 354,1012 L 381,999 492,748 772,1049 836,1024 860,1049 C 881,1039 901,1025 922,1006 886,937 835,863 770,784 769,783 710,716 594,584 L 774,223 C 774,196 753,168 711,139 L 727,119 C 717,90 699,76 672,76 641,76 570,178 457,381 L 164,-76 C 142,-110 111,-127 72,-127 30,-127 9,-110 8,-76 1,-67 -2,-52 -2,-32 -2,-23 -1,-13 0,-2 Z"/>
  </g>
  <g id="bullet-char-template(10004)" transform="scale(0.00048828125,-0.00048828125)">
   <path d="M 285,-33 C 182,-33 111,30 74,156 52,228 41,333 41,471 41,549 55,616 82,672 116,743 169,778 240,778 293,778 328,747 346,684 L 369,508 C 377,444 397,411 428,410 L 1163,1116 C 1174,1127 1196,1133 1229,1133 1271,1133 1292,1118 1292,1087 L 1292,965 C 1292,929 1282,901 1262,881 L 442,47 C 390,-6 338,-33 285,-33 Z"/>
  </g>
  <g id="bullet-char-template(9679)" transform="scale(0.00048828125,-0.00048828125)">
   <path d="M 813,0 C 632,0 489,54 383,161 276,268 223,411 223,592 223,773 276,916 383,1023 489,1130 632,1184 813,1184 992,1184 1136,1130 1245,1023 1353,916 1407,772 1407,592 1407,412 1353,268 1245,161 1136,54 992,0 813,0 Z"/>
  </g>
  <g id="bullet-char-template(8226)" transform="scale(0.00048828125,-0.00048828125)">
   <path d="M 346,457 C 273,457 209,483 155,535 101,586 74,649 74,723 74,796 101,859 155,911 209,963 273,989 346,989 419,989 480,963 531,910 582,859 608,796 608,723 608,648 583,586 532,535 482,483 420,457 346,457 Z"/>
  </g>
  <g id="bullet-char-template(8211)" transform="scale(0.00048828125,-0.00048828125)">
   <path d="M -4,459 L 1135,459 1135,606 -4,606 -4,459 Z"/>
  </g>
 </defs>
 <defs class="TextEmbeddedBitmaps"/>
 <g class="SlideGroup">
  <g>
   <g id="id1" class="Slide" clip-path="url(#presentation_clip_path)">
    <g class="Page">
     <g class="Graphic">
      <g id="id3">
       <rect class="BoundingBox" stroke="none" fill="none" x="9435" y="12673" width="2850" height="2850"/>
       <path fill="rgb(101,151,187)" stroke="none" d="M 12072,14436 C 11790,15000 11283,15395 10803,15395 10352,15395 9985,15198 9872,14916 L 9590,15226 9590,14182 10577,14182 10267,14464 C 10267,14464 10408,14859 11001,14859 11452,14859 12072,14436 12072,14436 L 12072,14436 Z"/>
       <path fill="none" stroke="rgb(4,30,49)" stroke-width="85" stroke-linejoin="miter" d="M 12072,14436 C 11790,15000 11283,15395 10803,15395 10352,15395 9985,15198 9872,14916 L 9590,15226 9590,14182 10577,14182 10267,14464 C 10267,14464 10408,14859 11001,14859 11452,14859 12072,14436 12072,14436 L 12072,14436 Z"/>
       <path fill="rgb(101,151,187)" stroke="none" d="M 9590,13759 C 9759,13195 10352,12800 10831,12800 11283,12800 11649,12997 11847,13279 L 12129,12969 12129,14013 11057,14013 11367,13731 C 11367,13731 11226,13336 10634,13336 10183,13336 9590,13759 9590,13759 L 9590,13759 Z"/>
       <path fill="none" stroke="rgb(4,30,49)" stroke-width="85" stroke-linejoin="miter" d="M 9590,13759 C 9759,13195 10352,12800 10831,12800 11283,12800 11649,12997 11847,13279 L 12129,12969 12129,14013 11057,14013 11367,13731 C 11367,13731 11226,13336 10634,13336 10183,13336 9590,13759 9590,13759 L 9590,13759 Z"/>
      </g>
     </g>
     <g class="Graphic">
      <g id="id4">
       <rect class="BoundingBox" stroke="none" fill="none" x="12235" y="12673" width="2850" height="2850"/>
       <path fill="rgb(208,206,169)" stroke="none" d="M 12362,15169 C 12362,15141 12351,13392 12351,13392 12351,13392 12334,13251 12475,13251 L 12644,13251 12644,13082 C 12644,13082 12644,12997 12729,12997 L 13208,12997 C 13208,12997 13293,12997 13293,13082 L 13293,13251 14506,13251 C 14506,13251 14619,13251 14619,13364 L 14562,15169 12362,15169 Z"/>
       <path fill="none" stroke="rgb(34,34,34)" stroke-width="56" stroke-linejoin="miter" d="M 12362,15169 C 12362,15141 12351,13392 12351,13392 12351,13392 12334,13251 12475,13251 12447,13251 12644,13251 12644,13251 L 12644,13082 C 12644,13082 12644,12997 12729,12997 L 13208,12997 C 13208,12997 13293,12997 13293,13082 L 13293,13251 14506,13251 C 14506,13251 14619,13251 14619,13364 L 14562,15169 12362,15169 Z"/>
       <path fill="rgb(232,220,136)" fill-opacity="0.8" stroke="rgb(255,255,255)" stroke-opacity="0.8" d="M 12362,15169 L 12672,13815 C 12672,13815 12672,13618 12898,13618 13180,13618 14760,13618 14760,13618 14760,13618 15013,13590 14957,13787 14901,13985 14619,15169 14619,15169 L 12362,15169 Z"/>
       <path fill="none" stroke="rgb(34,34,34)" stroke-width="56" stroke-linejoin="miter" d="M 12362,15169 L 12672,13815 C 12672,13815 12672,13618 12898,13618 13180,13618 14760,13618 14760,13618 14760,13618 15013,13590 14957,13787 14901,13985 14619,15169 14619,15169 L 12362,15169 Z"/>
      </g>
     </g>
    </g>
   </g>
  </g>
 </g>
</svg>