<?xml version="1.0" encoding="UTF-8"?>

<svg version="1.2" baseProfile="tiny" width="56.49mm" height="28.49mm" viewBox="9435 12673 5649 2849" preserveAspectRatio="xMidYMid" fill-rule="evenodd" stroke-width="28.222" stroke-linejoin="round" xmlns="http://www.w3.org/2000/svg" xmlns:ooo="http://xml.openoffice.org/svg/export" xmlns:xlink="http://www.w3.org/1999/xlink" xmlns:presentation="http://sun.com/xmlns/staroffice/presentation" xmlns:smil="http://www.w3.org/2001/SMIL20/" xmlns:anim="urn:oasis:names:tc:opendocument:xmlns:animation:1.0" xml:space="preserve">
 <defs class="ClipPathGroup">
  <clipPath id="presentation_clip_path" clipPathUnits="userSpaceOnUse">
   <rect x="9435" y="12673" width="5649" height="2849"/>
  </clipPath>
 </defs>
 <defs class="TextShapeIndex">
  <g ooo:slide="id1" ooo:id-list="id3 id4"/>
 </defs>
 <defs class="EmbeddedBulletChars">
  <g id="bullet-char-template(57356)" transform="scale(0.00048828125,-0.00048828125)">
   <path d="M 580,1141 L 1163,571 580,0 -4,571 580,1141 Z"/>
  </g>
  <g id="bullet-char-template(57354)" transform="scale(0.00048828125,-0.00048828125)">
   <path d="M 8,1128 L 1137,1128 1137,0 8,0 8,1128 Z"/>
  </g>
  <g id="bullet-char-template(10146)" transform="scale(0.00048828125,-0.00048828125)">
   <path d="M 174,0 L 602,739 174,1481 1456,739 174,0 Z M 1358,739 L 309,1346 659,739 1358,739 Z"/>
  </g>
  <g id="bullet-char-template(10132)" transform="scale(0.00048828125,-0.00048828125)">
   <path d="M 2015,739 L 1276,0 717,0 1260,543 174,543 174,936 1260,936 717,1481 1274,1481 2015,739 Z"/>
  </g>
  <g id="bullet-char-template(10007)" transform="scale(0.00048828125,-0.00048828125)">
   <path d="M 0,-2 C -7,14 -16,27 -25,37 L 356,567 C 262,823 215,952 215,954 215,979 228,992 255,992 264,992 276,990 289,987 310,991 331,999 354,1012 L 381,999 492,748 772,1049 836,1024 860,1049 C 881,1039 901,1025 922,1006 886,937 835,863 770,784 769,783 710,716 594,584 L 774,223 C 774,196 753,168 711,139 L 727,119 C 717,90 699,76 672,76 641,76 570,178 457,381 L 164,-76 C 142,-110 111,-127 72,-127 30,-127 9,-110 8,-76 1,-67 -2,-52 -2,-32 -2,-23 -1,-13 0,-2 Z"/>
  </g>
  <g id="bullet-char-template(10004)" transform="scale(0.00048828125,-0.00048828125)">
   <path d="M 285,-33 C 182,-33 111,30 74,156 52,228 41,333 41,471 41,549 55,616 82,672 116,743 169,778 240,778 293,778 328,747 346,684 L 369,508 C 377,444 397,411 428,410 L 1163,1116 C 1174,1127 1196,1133 1229,1133 1271,1133 1292,1118 1292,1087 L 1292,965 C 1292,929 1282,901 1262,881 L 442,47 C 390,-6 338,-33 285,-33 Z"/>
  </g>
  <g id="bullet-char-template(9679)" transform="scale(0.00048828125,-0.00048828125)">
   <path d="M 813,0 C 632,0 489,54 383,161 276,268 223,411 223,592 223,773 276,916 383,1023 489,1130 632,1184 813,1184 992,1184 1136,1130 1245,1023 1353,916 1407,772 1407,592 1407,412 1353,268 1245,161 1136,54 992,0 813,0 Z"/>
  </g>
  <g id="bullet-char-template(8226)" transform="scale(0.00048828125,-0.00048828125)">
   <path d="M 346,457 C 273,457 209,483 155,535 101,586 74,649 74,723 74,796 101,859 155,911 209,963 273,989 346,989 419,989 480,963 531,910 582,859 608,796 608,723 608,648 583,586 532,535 482,483 420,457 346,457 Z"/>
  </g>
  <g id="bullet-char-template(8211)" transform="scale(0.00048828125,-0.00048828125)">
   <path d="M -4,459 L 1135,459 1135,606 -4,606 -4,459 Z"/>
  </g>
 </defs>
 <defs class="TextEmbeddedBitmaps"/>
 <g class="SlideGroup">
  <g>
   <g id="id1" class="Slide" clip-path="url(#presentation_clip_path)">
    <g class="Page">
     <g class="Graphic">
      <g id="id3">
       <rect class="BoundingBox" stroke="none" fill="none" x="9435" y="12673" width="2850" height="2850"/>
       <path fill="rgb(101,151,187)" stroke="none" d="M 12072,14436 C 11790,15000 11283,15395 10803,15395 10352,15395 9985,15198 9872,14916 L 9590,15226 9590,14182 10577,14182 10267,14464 C 10267,14464 10408,14859 11001,14859 11452,14859 12072,14436 12072,14436 L 12072,14436 Z"/>
       <path fill="none" stroke="rgb(4,30,49)" stroke-width="85" stroke-linejoin="miter" d="M 12072,14436 C 11790,15000 11283,15395 10803,15395 10352,15395 9985,15198 9872,14916 L 9590,15226 9590,14182 10577,14182 10267,14464 C 10267,14464 10408,14859 11001,14859 11452,14859 12072,14436 12072,14436 L 12072,14436 Z"/>
       <path fill="rgb(101,151,187)" stroke="none" d="M 9590,13759 C 9759,13195 10352,12800 10831,12800 11283,12800 11649,12997 11847,13279 L 12129,12969 12129,14013 11057,14013 11367,13731 C 11367,13731 11226,13336 10634,13336 10183,13336 9590,13759 9590,13759 L 9590,13759 Z"/>
       <path fill="none" stroke="rgb(4,30,49)" stroke-width="85" stroke-linejoin="miter" d="M 9590,13759 C 9759,13195 10352,12800 10831,12800 11283,12800 11649,12997 11847,13279 L 12129,12969 12129,14013 11057,14013 11367,13731 C 11367,13731 11226,13336 10634,13336 10183,13336 9590,13759 9590,13759 L 9590,13759 Z"/>
      </g>
     </g>
     <g class="Graphic">
      <g id="id4">
       <rect class="BoundingBox" stroke="none" fill="none" x="12235" y="12673" width="2850" height="2850"/>
       <path fill="rgb(235,235,218)" stroke="none" d="M 12785,13928 L 12785,12772 14534,12772 14534,13928 Z"/>
       <path fill="none" stroke="rgb(0,0,0)" stroke-width="28" stroke-linejoin="miter" d="M 12785,13928 L 12785,12772 14534,12772 14534,13928"/>
       <path fill="none" stroke="rgb(0,0,0)" stroke-width="56" stroke-linejoin="miter" d="M 12983,12969 L 14336,12969 12983,12969 12983,12969 Z"/>
       <path fill="none" stroke="rgb(0,0,0)" stroke-width="56" stroke-linejoin="miter" d="M 12983,13167 L 14336,13167 12983,13167 12983,13167 Z"/>
       <path fill="none" stroke="rgb(0,0,0)" stroke-width="56" stroke-linejoin="miter" d="M 12983,13364 L 14336,13364 12983,13364 12983,13364 Z"/>
       <path fill="none" stroke="rgb(0,0,0)" stroke-width="56" stroke-linejoin="miter" d="M 12983,13562 L 13547,13562 12983,13562 12983,13562 Z"/>
       <path fill="none" stroke="rgb(0,0,0)" stroke-width="56" stroke-linejoin="miter" d="M 12983,13787 L 14336,13787 12983,13787 12983,13787 Z"/>
       <path fill="rgb(68,68,68)" stroke="none" d="M 12390,15198 C 12390,15310 12362,15395 12503,15395 12503,15395 14731,15395 14816,15395 14901,15395 14929,15367 14929,15198 Z"/>
       <path fill="none" stroke="rgb(0,0,0)" stroke-width="28" stroke-linejoin="miter" d="M 12390,15198 C 12390,15310 12362,15395 12503,15395 12503,15395 14731,15395 14816,15395 14901,15395 14929,15367 14929,15198"/>
       <path fill="rgb(136,136,136)" stroke="none" d="M 12362,14210 L 12503,13928 14788,13928 14957,14210 Z"/>
       <path fill="none" stroke="rgb(0,0,0)" stroke-width="28" stroke-linejoin="miter" d="M 12362,14210 L 12503,13928 14788,13928 14957,14210"/>
       <path fill="rgb(136,136,136)" stroke="none" d="M 12503,14182 C 12334,14182 12306,14210 12306,14351 L 12306,15028 C 12306,15141 12306,15198 12447,15198 L 14816,15198 C 14929,15198 15013,15198 15013,15057 L 15013,14295 C 15013,14239 14985,14182 14844,14182 L 12503,14182 Z"/>
       <path fill="none" stroke="rgb(0,0,0)" stroke-width="28" stroke-linejoin="miter" d="M 12503,14182 C 12334,14182 12306,14210 12306,14351 L 12306,15028 C 12306,15141 12306,15198 12447,15198 L 14816,15198 C 14929,15198 15013,15198 15013,15057 L 15013,14295 C 15013,14239 14985,14182 14844,14182 L 12503,14182 Z"/>
       <path fill="rgb(102,102,102)" stroke="none" d="M 12644,14295 C 12531,14295 12503,14323 12503,14436 12503,14492 12475,14605 12616,14605 L 14478,14605 C 14590,14605 14619,14577 14619,14436 14619,14323 14590,14295 14478,14295 L 12644,14295 Z"/>
       <path fill="none" stroke="rgb(0,0,0)" stroke-width="28" stroke-linejoin="miter" d="M 12644,14295 C 12531,14295 12503,14323 12503,14436 12503,14492 12475,14605 12616,14605 L 14478,14605 C 14590,14605 14619,14577 14619,14436 14619,14323 14590,14295 14478,14295 L 12644,14295 Z"/>
       <path fill="rgb(0,188,2)" stroke="none" d="M 12785,14450 C 12785,14466 12782,14479 12774,14492 12766,14506 12756,14516 12743,14523 12729,14531 12716,14535 12700,14535 12685,14535 12672,14531 12658,14523 12645,14516 12635,14506 12627,14492 12619,14479 12616,14466 12616,14450 12616,14435 12619,14421 12627,14408 12635,14394 12645,14385 12658,14377 12672,14369 12685,14365 12700,14365 12716,14365 12729,14369 12743,14377 12756,14385 12766,14394 12774,14408 12782,14421 12785,14435 12785,14450 L 12785,14450 Z"/>
       <path fill="none" stroke="rgb(17,17,17)" stroke-width="28" stroke-linejoin="miter" d="M 12785,14450 C 12785,14466 12782,14479 12774,14492 12766,14506 12756,14516 12743,14523 12729,14531 12716,14535 12700,14535 12685,14535 12672,14531 12658,14523 12645,14516 12635,14506 12627,14492 12619,14479 12616,14466 12616,14450 12616,14435 12619,14421 12627,14408 12635,14394 12645,14385 12658,14377 12672,14369 12685,14365 12700,14365 12716,14365 12729,14369 12743,14377 12756,14385 12766,14394 12774,14408 12782,14421 12785,14435 12785,14450 L 12785,14450 Z"/>
      </g>
     </g>
    </g>
   </g>
  </g>
 </g>
</svg>