/* XPM */
static char *mini_xpm[] = {
"16 16 8 1",
" 	c None",
"1	c #000000",
"2	c #FFFFFF",
"3	c #DBDBDB",
"4	c #242424",
"5	c #B60000",
"6	c #000000",
"7	c #000000",
"                ",
"                ",
"    1111        ",
"   133331       ",
"  13323331      ",
"  13233331      ",
"  13333331      ",
"  13333331      ",
"   1333311      ",
"    1111151     ",
"         151    ",
"          151   ",
"           151  ",
"            151 ",
"             11 ",
"                "
};
