/* XPM */
static char *mini_xpm[] = {
"16 16 28 1",
"A	c #EE2222",
"B	c #EE0022",
"C	c #EE1122",
"D	c #EE0000",
"E	c #FFAAAA",
"F	c #FFFFFF",
"G	c #EE3344",
"H	c #FF8888",
"I	c #FFDDDD",
"J	c #FF5555",
"K	c #FF9999",
"L	c #FFEEEE",
"M	c #FFCCCC",
"N	c #FF4444",
"O	c #EE0011",
"P	c #EE2233",
"Q	c #FF5566",
"R	c #EE3333",
"S	c #FFAABB",
"T	c #FFBBBB",
"U	c #FF6677",
"V	c #FF7777",
"W	c #FF8899",
"X	c #FFBBCC",
"Y	c #FF6666",
"Z	c #FF99AA",
"a	c #FF4455",
"b	c #FFCCDD",
"ABCCDEFGHFFFFIDC",
"BCCDJFKALFFFFKDC",
"CCBDIIDMFFFFFNOC",
"CCDEFPHFFFFFMDCC",
"CDQFHAFFFFFFHDCC",
"BDILJDMFFFFLROCC",
"DSFFFEDIFFFMDCCC",
"RTTMFFTUFFFVDCCC",
"CDDDNTFWIFLCOCCC",
"CCCCODKLEFTDCCCC",
"CCCCCCDTXFYDCCCC",
"CCCCCCDYIIOCCCCC",
"CCCCCCOGIZDCCCCC",
"CCCCCCOaLJOCCCCC",
"BCCCCCDHMDCCCCCC",
"PBCCCBCbYDCCCCCC"
};
