/* XPM */
static char *mini_xpm[] = {
"24 24 16 1",
" 	c None",
"1	c #FF0000",
"2	c #00FF00",
"3	c #FFFF00",
"4	c #0000FF",
"5	c #FF00FF",
"6	c #00FFFF",
"7	c #FFFFFF",
"8	c #DBDBDB",
"9	c #B6B6B6",
"A	c #929292",
"B	c #6D6D6D",
"C	c #494949",
"D	c #242424",
"E	c #DB0000",
"F	c #B60000",
"             D     D    ",
"            D1D   D1D   ",
"           D111D D111D  ",
"  44444  DD11111D11111DD",
" 44444444D1111111111111D",
"444   444D1111111111111D",
"44       D1111111111111D",
"44       D1111111111111D",
"44       DD11111D11111DD",
"444        D111D D111D  ",
" 444        D1D   D1D   ",
"  444        D     D    ",
"   44                   ",
"   44                   ",
"   44DDDDDDDDDDDDDD     ",
"  DDD88888888888888DDD  ",
"DD88888888888888888888DD",
"DBDDD88888888888888DDDBD",
"DBBBBDDDDDDDDDDDDDDBBBBD",
"DBBBBBBBBBBBBBBBBBBBBBBD",
"DBBBBBBBBBBBBBBBBBBBBBBD",
"DDBBBBBBBBBBBBBBBBBBBBDD",
"  DDDBBBBBBBBBBBBBBDDD  ",
"     DDDDDDDDDDDDDD     "
};
