/* XPM */
static char *mini_xpm[] = {
"22 22 5 1",
" 	c None",
"1	c #808080",
"2	c #000000",
"3	c #FFFFFF",
"4	c #FFFF00",
"      2222222         ",
"     233333332        ",
"   1233333333321      ",
"   2333211123332      ",
"   233211   23321     ",
"   23321    23321     ",
"   23321    23321     ",
"   23321    23321     ",
" 22222222222222222    ",
" 244444444444444421   ",
" 244444444444444421   ",
" 244111111111114421   ",
" 244111111111114421   ",
" 244444444444444421   ",
" 244444444444444421   ",
" 244111111111114421   ",
" 244111111111114421   ",
" 244444444444444421   ",
" 244444444444444421   ",
" 222222222222222221   ",
"  11111111111111111   ",
"                      "
};
