/* XPM */
static char *vault22_xpm[] = {
"22 22 4 1",
"0	c #000000",
" 	c None",
"2	c #B6B6B6",
"3	c #000000",
"                      ",
"   00000000000000000  ",
"  0022222222222222200 ",
"  0222222222222222220 ",
"  0222222200022222220 ",
"  0222222000002222220 ",
"  0222220000000222220 ",
"  0222220000000222220 ",
"  0222220000000222220 ",
"  0222222000002222220 ",
"  0222222200022222220 ",
"  0222222200022222220 ",
"  0222222200022222220 ",
"  0222222200022222220 ",
"  0222222200022222220 ",
"  0222222200022222220 ",
"  0222222200022222220 ",
"  0222222222222222220 ",
"  0022222222222222200 ",
"   00000000000000000  ",
"                      ",
"                      "
};
