/* XPM */
static char *vault22_xpm[] = {
"22 22 4 1",
"0	c #000000",
" 	c None",
"2	c #B6B6B6",
"3	c #000000",
"    000000000000000   ",
"   00000000000000000  ",
"  0022222222222222200 ",
" 002222222222222222200",
" 002222222000222222200",
" 002222220000022222200",
" 002222200000002222200",
" 002222200000002222200",
" 002222200000002222200",
" 002222220000022222200",
" 002222222000222222200",
" 002222222000222222200",
" 002222222000222222200",
" 002222222000222222200",
" 002222222000222222200",
" 002222222000222222200",
" 002222222000222222200",
" 002222222222222222200",
"  0022222222222222200 ",
"   00000000000000000  ",
"    000000000000000   ",
"                      "
};
