/* XPM */
static char *mini_xpm[] = {
"16 16 10 1",
"0	c #55E155",
"1	c #1DD71D",
"2	c #E3FAE3",
"3	c #AAF0AA",
"4	c #72E672",
"5	c #39DC39",
"6	c #00D200",
" 	c None",
"8	c #C7F5C7",
"9	c #8EEB8E",
"             666",
"            5666",
"           6666 ",
"          1660  ",
"         5661   ",
"        6666    ",
"        666     ",
" 66    166      ",
"6666  0665      ",
"6666  661       ",
" 66611666       ",
" 5666666        ",
"  666616        ",
"  66666         ",
"   6666         ",
"   666          "
};
