/* XPM */
static char *mini_xpm[] = {
"16 16 4 1",
" 	c None",
"1	c #000000",
"2	c #DBDBDB",
"3	c #B60000",
"                ",
"         11     ",
"        1331    ",
"        131     ",
"         1      ",
"    311313      ",
"   11  13111 31 ",
"       131 311  ",
"      131       ",
"  3  1311       ",
" 111131 31      ",
"   131  13      ",
"         3      ",
"         1      ",
"         311    ",
"                "
};
