/* XPM */
static char *mini_xpm[] = {
"16 16 16 1",
" 	c None",
"1	c #FF0000",
"2	c #00FF00",
"3	c #FFFF00",
"4	c #0000FF",
"5	c #FF00FF",
"6	c #00FFFF",
"7	c #FFFFFF",
"8	c #DBDBDB",
"9	c #B6B6B6",
"A	c #929292",
"B	c #6D6D6D",
"C	c #494949",
"D	c #242424",
"E	c #FFB0B0",
"F	c #FF8080",
"     E1111E     ",
"    11111111    ",
"  E1111111111E  ",
"  111FFFFF1111  ",
" 111FFEEEFF1111 ",
"E11FFEEEFFFFF11E",
"111FEFFFFF111111",
"11FFFFFF11111111",
"11F1111111111111",
"1111111111111111",
"E11111111111111E",
" 11111111111111 ",
"  111111111111  ",
"  E1111111111E  ",
"    11111111    ",
"     E1111E     "
};
