/* XPM */
static char *xsoldier_xpm[] = {
"16 16 24 1",
" 	c None",
"B	c #C0C0C0",
"C	c #606060",
"D	c #202020",
"E	c #0080FF",
"F	c #0070E0",
"G	c #0060C0",
"H	c #0050A0",
"I	c #003060",
"J	c #004080",
"K	c #808080",
"L	c #404040",
"M	c #C00000",
"N	c #E00000",
"O	c #A00000",
"P	c #800000",
"Q	c #FF0000",
"R	c #0000FF",
"S	c #009ACD",
"T	c #00B2EE",
"U	c #00FFFF",
"V	c #00FFFF",
"W	c #00B2EE",
"X	c #000000",
"D              B",
"DH            GB",
"DHH          GGB",
" HHH        GGGB",
"  HHH  KL  GGG  ",
"   HHH NO GGG   ",
"    HHHNOGGGJ   ",
"    IHHNOGGJ    ",
"     IHWWGJ     ",
"    GGINOJHH    ",
"   EGGGNOHHHF   ",
"   GGG NO HHHF  ",
" BGG        HHC ",
" BG          HC ",
"              C ",
"                "
};
