/* XPM */
static char * gtkhash_xpm[] = {
"32 32 731 2",
"  	c None",
". 	c #FEFEFE",
"+ 	c #FEFDFE",
"@ 	c #FDFEF9",
"# 	c #FCFDFC",
"$ 	c #FBFDFD",
"% 	c #FFFDFE",
"& 	c #F0F2EE",
"* 	c #EEF4EA",
"= 	c #FDFEFB",
"- 	c #FAFCF9",
"; 	c #FBFEFA",
"> 	c #FCFEFD",
", 	c #FEFEFC",
"' 	c #FEFEFD",
") 	c #FDFDFE",
"! 	c #FDFDFD",
"~ 	c #FFFCFF",
"{ 	c #FFFEFF",
"] 	c #FFFFFF",
"^ 	c #D7D3CE",
"/ 	c #67665D",
"( 	c #1F2024",
"_ 	c #282936",
": 	c #A3A3A2",
"< 	c #FFFDFF",
"[ 	c #FDFEFE",
"} 	c #FCFCFD",
"| 	c #EBE9E6",
"1 	c #B1B1B1",
"2 	c #3C3B44",
"3 	c #000210",
"4 	c #1F254F",
"5 	c #5B65A5",
"6 	c #47508A",
"7 	c #070C1E",
"8 	c #212321",
"9 	c #B4B6AD",
"0 	c #F0F1EA",
"a 	c #FDFCFF",
"b 	c #FBFBFE",
"c 	c #FFFEFE",
"d 	c #E6E7E6",
"e 	c #666564",
"f 	c #181717",
"g 	c #16192F",
"h 	c #535F9B",
"i 	c #7087DF",
"j 	c #7B96F7",
"k 	c #7B97FE",
"l 	c #7E95FD",
"m 	c #7B89E8",
"n 	c #5B66A5",
"o 	c #0B122C",
"p 	c #222525",
"q 	c #A1A09C",
"r 	c #FEFDFD",
"s 	c #FDFEFD",
"t 	c #FBFCFD",
"u 	c #F8F6F2",
"v 	c #C9CDCD",
"w 	c #635F5E",
"x 	c #07040B",
"y 	c #1C2342",
"z 	c #5B70B6",
"A 	c #7C90EB",
"B 	c #7889DB",
"C 	c #6F80D0",
"D 	c #6B77CB",
"E 	c #6978C2",
"F 	c #6A7EC6",
"G 	c #7387E1",
"H 	c #7E95F6",
"I 	c #8797FC",
"J 	c #4B5090",
"K 	c #090E1E",
"L 	c #282927",
"M 	c #BABBB8",
"N 	c #F5F4F1",
"O 	c #FBFCF9",
"P 	c #FBFBFA",
"Q 	c #FEFDFF",
"R 	c #FFFBFF",
"S 	c #ADADA8",
"T 	c #302E34",
"U 	c #0E0B18",
"V 	c #3F477C",
"W 	c #7183D5",
"X 	c #6271BD",
"Y 	c #21233E",
"Z 	c #11112A",
"` 	c #050716",
" .	c #00040D",
"..	c #070B15",
"+.	c #060A1B",
"@.	c #000119",
"#.	c #08091A",
"$.	c #1A2044",
"%.	c #6276C3",
"&.	c #7D9AFF",
"*.	c #748BE9",
"=.	c #5662A0",
"-.	c #10172E",
";.	c #457548",
">.	c #C4D1C1",
",.	c #FEFFFA",
"'.	c #FBFBFB",
").	c #EEEEEE",
"!.	c #B3B4AE",
"~.	c #272A29",
"{.	c #04091C",
"].	c #3D4473",
"^.	c #7A92E2",
"/.	c #7B9AFF",
"(.	c #6981D0",
"_.	c #06080B",
":.	c #09090E",
"<.	c #3B4272",
"[.	c #6876C3",
"}.	c #818AEC",
"|.	c #8596F7",
"1.	c #8493F6",
"2.	c #7D89D9",
"3.	c #3F496F",
"4.	c #08070C",
"5.	c #000006",
"6.	c #7285CF",
"7.	c #7E92FD",
"8.	c #7F94FA",
"9.	c #52BB6E",
"0.	c #40CD3B",
"a.	c #30AA2E",
"b.	c #595960",
"c.	c #DCDBDC",
"d.	c #FEFFF9",
"e.	c #FAFAFA",
"f.	c #DDDDDD",
"g.	c #2E2F2E",
"h.	c #141A30",
"i.	c #5C66A4",
"j.	c #778AE8",
"k.	c #7D9AFC",
"l.	c #7E9BFE",
"m.	c #879FF4",
"n.	c #424B79",
"o.	c #000002",
"p.	c #2D395B",
"q.	c #87A3F4",
"r.	c #7FA0F9",
"s.	c #859CF8",
"t.	c #84A1FA",
"u.	c #81A0FC",
"v.	c #8099FC",
"w.	c #849AFF",
"x.	c #525F9A",
"y.	c #000304",
"z.	c #1E1F4F",
"A.	c #808DFB",
"B.	c #5CADA0",
"C.	c #3EC63B",
"D.	c #44C649",
"E.	c #3D4371",
"F.	c #151322",
"G.	c #888886",
"H.	c #F9F9F9",
"I.	c #FCFBFE",
"J.	c #FFFFFD",
"K.	c #827E82",
"L.	c #0B0303",
"M.	c #1B1F35",
"N.	c #6A7ABC",
"O.	c #819BF7",
"P.	c #80A3FA",
"Q.	c #83A1F6",
"R.	c #89A9F3",
"S.	c #3C4B77",
"T.	c #000000",
"U.	c #4C5D8D",
"V.	c #87A8F6",
"W.	c #82A7FB",
"X.	c #89ABF7",
"Y.	c #596594",
"Z.	c #4B5782",
"`.	c #6F89C4",
" +	c #7E9EF1",
".+	c #7CA4FA",
"++	c #7D9BEA",
"@+	c #8090ED",
"#+	c #6FA0CA",
"$+	c #3EC639",
"%+	c #3EC53B",
"&+	c #3FC53D",
"*+	c #5E9695",
"=+	c #4F5283",
"-+	c #0A0D17",
";+	c #050705",
">+	c #D6D7D3",
",+	c #FCFAFE",
"'+	c #565456",
")+	c #7E404B",
"!+	c #8F3E4C",
"~+	c #160711",
"{+	c #1D304A",
"]+	c #7A8FC8",
"^+	c #90B0F9",
"/+	c #86ADF9",
"(+	c #718EBA",
"_+	c #040703",
":+	c #293148",
"<+	c #94AEDE",
"[+	c #8CB4F5",
"}+	c #83B6F9",
"|+	c #5A7994",
"1+	c #000303",
"2+	c #080807",
"3+	c #1B223C",
"4+	c #8FA3E6",
"5+	c #85A1F3",
"6+	c #77A5E7",
"7+	c #45C14F",
"8+	c #40C93D",
"9+	c #2A882E",
"0+	c #020C0E",
"a+	c #264C24",
"b+	c #76A56E",
"c+	c #081108",
"d+	c #DEDDDD",
"e+	c #434445",
"f+	c #A3424F",
"g+	c #DD6167",
"h+	c #C9605C",
"i+	c #5A2221",
"j+	c #0C020E",
"k+	c #394C63",
"l+	c #7AA0CF",
"m+	c #8CB9EF",
"n+	c #476280",
"o+	c #0A1217",
"p+	c #0E1421",
"q+	c #5D6E89",
"r+	c #819FC1",
"s+	c #7F97C5",
"t+	c #17192A",
"u+	c #070000",
"v+	c #070B1B",
"w+	c #88A9E3",
"x+	c #87ABFA",
"y+	c #56BA7C",
"z+	c #3EC63C",
"A+	c #3EB63A",
"B+	c #2E4B25",
"C+	c #70BE5B",
"D+	c #82F268",
"E+	c #73BF5F",
"F+	c #121913",
"G+	c #EAE8EB",
"H+	c #3B3C3D",
"I+	c #9B4447",
"J+	c #DB575E",
"K+	c #DF5663",
"L+	c #DC5C6A",
"M+	c #BC565C",
"N+	c #5D2B2C",
"O+	c #120B10",
"P+	c #2E4656",
"Q+	c #90B6D7",
"R+	c #8BB7CF",
"S+	c #597386",
"T+	c #121524",
"U+	c #01020D",
"V+	c #030606",
"W+	c #000302",
"X+	c #3C5261",
"Y+	c #7DA4D6",
"Z+	c #8FB9F4",
"`+	c #64B58E",
" @	c #3DC638",
".@	c #3FC63C",
"+@	c #42C73E",
"@@	c #70D15F",
"#@	c #7EE861",
"$@	c #7EE567",
"%@	c #80E56A",
"&@	c #59924D",
"*@	c #232327",
"=@	c #F8F5FA",
"-@	c #383939",
";@	c #954143",
">@	c #D4525B",
",@	c #DE5059",
"'@	c #D45866",
")@	c #DF5862",
"!@	c #E36469",
"~@	c #BA585D",
"{@	c #421A1D",
"]@	c #080408",
"^@	c #48626C",
"/@	c #8ABCC4",
"(@	c #A5D8E6",
"_@	c #86B8CB",
":@	c #769FC1",
"<@	c #92BEE0",
"[@	c #96BFE7",
"}@	c #6C8DAD",
"|@	c #2B5148",
"1@	c #39BB36",
"2@	c #3FC53C",
"3@	c #3DC53B",
"4@	c #5DD451",
"5@	c #80E467",
"6@	c #78E960",
"7@	c #76E861",
"8@	c #7BE865",
"9@	c #3A6431",
"0@	c #443D47",
"a@	c #FCFFFB",
"b@	c #933D40",
"c@	c #CA4E58",
"d@	c #CA5558",
"e@	c #7A2A32",
"f@	c #CA5768",
"g@	c #E35A68",
"h@	c #E2616D",
"i@	c #E46A79",
"j@	c #B45E65",
"k@	c #361418",
"l@	c #0E0E12",
"m@	c #325759",
"n@	c #92C1CD",
"o@	c #A1C9E2",
"p@	c #5B7489",
"q@	c #12182B",
"r@	c #0E1E0F",
"s@	c #37B033",
"t@	c #54D14C",
"u@	c #78EA6A",
"v@	c #7BCA57",
"w@	c #4C7B43",
"x@	c #4E9247",
"y@	c #83E664",
"z@	c #1E3E18",
"A@	c #746D76",
"B@	c #FDFFFC",
"C@	c #3C3D3D",
"D@	c #8D3639",
"E@	c #CD4553",
"F@	c #AC4F4D",
"G@	c #090000",
"H@	c #120100",
"I@	c #6F3238",
"J@	c #C95063",
"K@	c #EA6173",
"L@	c #F06A75",
"M@	c #EC7785",
"N@	c #733A40",
"O@	c #140305",
"P@	c #000508",
"Q@	c #111E22",
"R@	c #16210B",
"S@	c #6A8949",
"T@	c #67D655",
"U@	c #3DC53A",
"V@	c #48CA41",
"W@	c #80E66A",
"X@	c #75C164",
"Y@	c #09160E",
"Z@	c #0E200A",
"`@	c #78D361",
" #	c #78DC68",
".#	c #0C1E09",
"+#	c #ACA5AE",
"@#	c #414242",
"##	c #873034",
"$#	c #C54046",
"%#	c #AC4442",
"&#	c #0E0000",
"*#	c #000100",
"=#	c #060001",
"-#	c #110D09",
";#	c #522327",
">#	c #CE6272",
",#	c #FC7482",
"'#	c #FF758C",
")#	c #BA6676",
"!#	c #110508",
"~#	c #384B29",
"{#	c #BEEE78",
"]#	c #8FE65F",
"^#	c #3CC43A",
"/#	c #7FE062",
"(#	c #92DA76",
"_#	c #13280D",
":#	c #74BE65",
"<#	c #78E95D",
"[#	c #79CD6C",
"}#	c #050E03",
"|#	c #DDD7DE",
"1#	c #FBFFF9",
"2#	c #FCFEFE",
"3#	c #49454A",
"4#	c #7B2C2B",
"5#	c #B94041",
"6#	c #BF4042",
"7#	c #B3434A",
"8#	c #581D1D",
"9#	c #030203",
"0#	c #020006",
"a#	c #010000",
"b#	c #542830",
"c#	c #E96B7F",
"d#	c #F37789",
"e#	c #2A1017",
"f#	c #4C6334",
"g#	c #A6F369",
"h#	c #6EDF52",
"i#	c #94E274",
"j#	c #253E1F",
"k#	c #000900",
"l#	c #639D57",
"m#	c #7DE869",
"n#	c #7BE667",
"o#	c #79BB67",
"p#	c #030903",
"q#	c #FBFFFA",
"r#	c #FBFEFE",
"s#	c #504C50",
"t#	c #742825",
"u#	c #B8363B",
"v#	c #B53B3B",
"w#	c #C13F42",
"x#	c #BD4F52",
"y#	c #170809",
"z#	c #000005",
"A#	c #030000",
"B#	c #13090B",
"C#	c #DB6476",
"D#	c #F77688",
"E#	c #281118",
"F#	c #486834",
"G#	c #56D048",
"H#	c #54CF47",
"I#	c #9EF172",
"J#	c #4C6E37",
"K#	c #010006",
"L#	c #345E33",
"M#	c #84E06E",
"N#	c #7DE269",
"O#	c #7BE567",
"P#	c #68AB58",
"Q#	c #2E2F2F",
"R#	c #FCFFFC",
"S#	c #F5FFF6",
"T#	c #515951",
"U#	c #6E211E",
"V#	c #B62F34",
"W#	c #AB3933",
"X#	c #B93A3A",
"Y#	c #C4434B",
"Z#	c #160304",
"`#	c #73393C",
" $	c #843940",
".$	c #531F24",
"+$	c #E2697A",
"@$	c #F67086",
"#$	c #271016",
"$$	c #2F8628",
"%$	c #3FC83C",
"&$	c #36B135",
"*$	c #5A8E3E",
"=$	c #638D4F",
"-$	c #000001",
";$	c #23411E",
">$	c #89EB75",
",$	c #78E65D",
"'$	c #7DE26A",
")$	c #7EE76D",
"!$	c #458438",
"~$	c #636163",
"{$	c #E0F5E2",
"]$	c #5ACE57",
"^$	c #3CB63A",
"/$	c #714B28",
"($	c #AE2A2D",
"_$	c #AB332C",
":$	c #B93535",
"<$	c #B44242",
"[$	c #0E0201",
"}$	c #AB4A51",
"|$	c #E4606C",
"1$	c #DE6375",
"2$	c #EE6D7D",
"3$	c #F07187",
"4$	c #41602E",
"5$	c #3FC93D",
"6$	c #3DC13A",
"7$	c #0F2E0D",
"8$	c #212C1F",
"9$	c #040C03",
"0$	c #070006",
"a$	c #1E3518",
"b$	c #65A657",
"c$	c #88E96D",
"d$	c #76E863",
"e$	c #80EA72",
"f$	c #295720",
"g$	c #9B959C",
"h$	c #FCFEFB",
"i$	c #CAEFC8",
"j$	c #42C33B",
"k$	c #91482A",
"l$	c #AB2C27",
"m$	c #B63030",
"n$	c #A83D3D",
"o$	c #080000",
"p$	c #B7535B",
"q$	c #D65D64",
"r$	c #E46170",
"s$	c #F3697B",
"t$	c #D97F7D",
"u$	c #4BC142",
"v$	c #3EC73B",
"w$	c #398F33",
"x$	c #010002",
"y$	c #09150D",
"z$	c #365C2A",
"A$	c #305121",
"B$	c #080F0A",
"C$	c #1E2E18",
"D$	c #61A74C",
"E$	c #86E16D",
"F$	c #183115",
"G$	c #BDBBBD",
"H$	c #F2FCF1",
"I$	c #61D05F",
"J$	c #46BA39",
"K$	c #954324",
"L$	c #AF2E2D",
"M$	c #993B38",
"N$	c #020000",
"O$	c #120005",
"P$	c #C15360",
"Q$	c #E25663",
"R$	c #E2626F",
"S$	c #F16779",
"T$	c #5FB749",
"U$	c #3DC63B",
"V$	c #56D449",
"W$	c #5E854D",
"X$	c #568847",
"Y$	c #83E76C",
"Z$	c #7AE568",
"`$	c #76C468",
" %	c #43733A",
".%	c #000306",
"+%	c #152E15",
"@%	c #87CC81",
"#%	c #061708",
"$%	c #D6D5D6",
"%%	c #FCFCFC",
"&%	c #F1F9EE",
"*%	c #4FC44C",
"=%	c #3EC73C",
"-%	c #47B739",
";%	c #A13E2B",
">%	c #A13633",
",%	c #170304",
"'%	c #190204",
")%	c #C1585F",
"!%	c #DD5760",
"~%	c #DE626E",
"{%	c #869E52",
"]%	c #3AC83A",
"^%	c #45C940",
"/%	c #81EA63",
"(%	c #567B48",
"_%	c #589D46",
":%	c #78E862",
"<%	c #73E865",
"[%	c #76E75F",
"}%	c #86E566",
"|%	c #79D462",
"1%	c #81E863",
"2%	c #7FBA66",
"3%	c #0D0F0D",
"4%	c #E2E2E2",
"5%	c #FEFDFB",
"6%	c #D5E3D8",
"7%	c #4BC54A",
"8%	c #4CB239",
"9%	c #A44531",
"0%	c #9B3B39",
"a%	c #702528",
"b%	c #CB5155",
"c%	c #DA5560",
"d%	c #AD7E5F",
"e%	c #42C43C",
"f%	c #3CC73A",
"g%	c #68CC5B",
"h%	c #82ED68",
"i%	c #4D7142",
"j%	c #62AD55",
"k%	c #7DE366",
"l%	c #7EE265",
"m%	c #7CE265",
"n%	c #7DE46A",
"o%	c #84E77A",
"p%	c #44823E",
"q%	c #010C00",
"r%	c #68676C",
"s%	c #F7F7F7",
"t%	c #FDFCFD",
"u%	c #FDFDFB",
"v%	c #DAF5DC",
"w%	c #4DC949",
"x%	c #3DC73C",
"y%	c #53AB3A",
"z%	c #B74239",
"A%	c #C34B4A",
"B%	c #CC4C4D",
"C%	c #CB5E5E",
"D%	c #46C03E",
"E%	c #1D621A",
"F%	c #68BA59",
"G%	c #82E76B",
"H%	c #508945",
"I%	c #35642E",
"J%	c #89DE7B",
"K%	c #7AE661",
"L%	c #79EA5D",
"M%	c #80E06B",
"N%	c #6BAF5C",
"O%	c #153010",
"P%	c #221F20",
"Q%	c #B6B1B3",
"R%	c #DBEFD5",
"S%	c #4AC847",
"T%	c #53AD3D",
"U%	c #B94E4E",
"V%	c #D24A50",
"W%	c #61AB43",
"X%	c #3DC73B",
"Y%	c #4FAF40",
"Z%	c #120604",
"`%	c #6DC862",
" &	c #7CE069",
".&	c #7EE869",
"+&	c #73E95C",
"@&	c #82EA6B",
"#&	c #7EC46E",
"$&	c #264020",
"%&	c #0A1108",
"&&	c #939791",
"*&	c #E9EBE9",
"=&	c #FBFFFD",
"-&	c #C8ECC8",
";&	c #45C742",
">&	c #56943D",
",&	c #85824D",
"'&	c #45C23D",
")&	c #C17471",
"!&	c #140105",
"~&	c #76CE6F",
"{&	c #79E765",
"]&	c #78E861",
"^&	c #7EE665",
"/&	c #79D467",
"(&	c #4C7C42",
"_&	c #090F08",
":&	c #4F4C4C",
"<&	c #E8E7E4",
"[&	c #F9FEFD",
"}&	c #CDEDC9",
"|&	c #44C741",
"1&	c #3DC43A",
"2&	c #41C53C",
"3&	c #B68666",
"4&	c #D7697B",
"5&	c #120204",
"6&	c #7BD170",
"7&	c #7BE765",
"8&	c #84E272",
"9&	c #56844C",
"0&	c #091607",
"a&	c #3D3F3B",
"b&	c #CCCBCA",
"c&	c #FBFDF8",
"d&	c #FDFBFC",
"e&	c #FEFCFF",
"f&	c #FEFCFE",
"g&	c #FCFEFC",
"h&	c #ADE7AC",
"i&	c #3FC63D",
"j&	c #448D33",
"k&	c #C65E6F",
"l&	c #D46E7F",
"m&	c #82D271",
"n&	c #69B755",
"o&	c #193C14",
"p&	c #171A1B",
"q&	c #9C989D",
"r&	c #FEFCFD",
"s&	c #FFFAFF",
"t&	c #B5E8B4",
"u&	c #3BC438",
"v&	c #39C436",
"w&	c #60D15E",
"x&	c #747976",
"y&	c #1F0105",
"z&	c #68383F",
"A&	c #110C08",
"B&	c #244022",
"C&	c #020B05",
"D&	c #928C92",
"E&	c #ECE7E9",
"F&	c #C5EDC4",
"G&	c #9AE199",
"H&	c #EFF8EE",
"I&	c #FBFFFF",
"J&	c #AEAFB2",
"K&	c #201D1E",
"L&	c #100C0C",
"M&	c #514D50",
"N&	c #EFE8EE",
"O&	c #FAFDFB",
"P&	c #FBFEFC",
"Q&	c #EEEDEF",
"R&	c #DDD7DB",
"S&	c #FDFBF7",
"T&	c #FEFEF8",
"U&	c #FAFDFA",
"V&	c #F9FFFF",
". . . . . . . . . . . + @ @ # $ % & * = - ; > , ' ) . . . . . . ",
". . . . . . . . . ! . . ~ { ] ^ / ( _ : ] < + [ ' ) . . . . . . ",
". . . . . . ' . ' . ! } | 1 2 3 4 5 6 7 8 9 0 a b . . . . . . . ",
". . . [ + . . ' c ] d e f g h i j k l m n o p q ] ] r . . s ' r ",
". . . . $ t < u v w x y z A B C D E F G H I J K L M N O P Q Q . ",
". ! . . R ] S T U V W X Y Z `  ...+.@.#.$.%.&.*.=.-.;.>.] ,., . ",
". . '.).!.~.{.].^./.(._.:.<.[.}.|.1.2.3.4.5.6.7.8.9.0.a.b.c.d.e.",
"' . f.g.h.i.j.k.l.m.n.o.p.q.r.s.t.u.v.w.x.y.z.A.B.C.C.D.E.F.G.H.",
"I.J.K.L.M.N.O.P.Q.R.S.T.U.V.W.X.Y.Z.`. +.+++@+#+$+%+&+*+=+-+;+>+",
",+] '+)+!+~+{+]+^+/+(+_+:+<+[+}+|+1+2+3+4+5+6+7+C.8+9+0+a+b+c+d+",
"} ] e+f+g+h+i+j+k+l+m+n+o+p+q+r+s+t+u+v+w+x+y+$+z+A+B+C+D+E+F+G+",
"r ] H+I+J+K+L+M+N+O+P+Q+R+S+T+U+V+W+X+Y+Z+`+ @.@+@@@#@$@%@&@*@=@",
"! ] -@;@>@,@'@)@!@~@{@]@^@/@(@_@:@<@[@}@|@1@2@3@4@5@6@7@8@9@0@a@",
"! ] -@b@c@d@e@f@g@h@i@j@k@l@m@n@o@p@q@r@s@.@%+t@u@v@w@x@y@z@A@B@",
"! ] C@D@E@F@G@H@I@J@K@L@M@N@O@P@Q@R@S@T@U@%+V@W@X@Y@Z@`@ #.#+#a@",
"! ] @###$#%#&#*#=#-#;#>#,#'#)#!#~#{#]#.@%+^#/#(#_#W+:#<#[#}#|#1#",
"2#] 3#4#5#6#7#8#9#0#T.a#b#c#d#e#f#g#3@%+.@h#i#j#k#l#m#n#o#p#] q#",
"r#] s#t#u#v#w#x#y#z#A#T.B#C#D#E#F#G#%+C.H#I#J#K#L#M#N#O#P#Q#] R#",
"$ S#T#U#V#W#X#Y#Z#T.`# $.$+$@$#$$$%$.@&$*$=$-$;$>$,$'$)$!$~$] a@",
"{$]$^$/$($_$:$<$[$T.}$|$1$2$3$4$5$%+6$7$8$9$0$a$b$c$d$e$f$g$] h$",
"i$%+z+j$k$l$m$n$o$o$p$q$r$s$t$u$%+v$w$x$y$z$A$B$T.C$D$E$F$G$. s ",
"H$I$U@z+J$K$L$M$N$O$P$Q$R$S$T$U$%+V$W$T.X$Y$Z$`$ %.%+%@%#%$%%%. ",
"[ &%*%U@=%-%;%>%,%'%)%!%~%{%]%C.^%/%(%T._%:%<%[%}%|%1%2%3%4%! . ",
"%%5%6%7%%+=%8%9%0%a%b%c%d%e%2@f%g%h%i%T.j%k%l%m%n%o%p%q%r%s%%%. ",
"t%u%b v%w%%+x%y%z%A%B%C%D%C..@E%F%G%H%I%J%K%L%M%N%O%P%Q%] ! ! . ",
". . . ] R%S%2@x%T%U%V%W%X%C.Y%Z%`%n% &.&+&@&#&$&%&&&*&Q t%. . ! ",
". . + ! =&-&;&%+X%>&,&X%C.'&)&!&~&{&]&^&/&(&_&:&<&] %%[ . ! . . ",
". . ' + [&{ }&|&.@U$1&C.2&3&4&5&6&7&8&9&0&a&b&c&d&R e&[ [ ' . . ",
". . . s f&g&g&h&i&%+.@v$j&k&l&5&m&n&o&p&q&] a@r&s&f&+ [ ' [ . . ",
". . . + s + . { t&u&v&w&x&y&z&A&B&C&D&E&] . + . s ! s r [ . . . ",
". . . . . . . ! { F&G&H&I&J&K&L&M&N&{ O&P&+ . . . . . . . . . . ",
". . . . . . . . . { { . %%} Q&R&S&T&U&V&2#r . . . . . . . . . . "};
