<?xml version="1.0" encoding="UTF-8" standalone="no"?>
<svg
   xmlns:dc="http://purl.org/dc/elements/1.1/"
   xmlns:cc="http://creativecommons.org/ns#"
   xmlns:rdf="http://www.w3.org/1999/02/22-rdf-syntax-ns#"
   xmlns:svg="http://www.w3.org/2000/svg"
   xmlns="http://www.w3.org/2000/svg"
   xmlns:xlink="http://www.w3.org/1999/xlink"
   xmlns:sodipodi="http://sodipodi.sourceforge.net/DTD/sodipodi-0.dtd"
   xmlns:inkscape="http://www.inkscape.org/namespaces/inkscape"
   version="1.1"
   width="22.048063"
   height="19.793501"
   id="svg4231"
   inkscape:version="0.92.2 5c3e80d, 2017-08-06"
   sodipodi:docname="initrd.svg"
   inkscape:export-filename="boot114x96-B.png"
   inkscape:export-xdpi="467.23175"
   inkscape:export-ydpi="467.23175"
   style="color-interpolation:linearRGB">
  <title
     id="title6457">Boot, 48x48</title>
  <metadata
     id="metadata4272">
    <rdf:RDF>
      <cc:Work
         rdf:about="">
        <dc:format>image/svg+xml</dc:format>
        <dc:type
           rdf:resource="http://purl.org/dc/dcmitype/StillImage" />
        <dc:title>Boot, 48x48</dc:title>
        <cc:license
           rdf:resource="http://s.zeid.me/other/tango-icons/#boot" />
        <dc:creator>
          <cc:Agent>
            <dc:title>Scott Zeid</dc:title>
          </cc:Agent>
        </dc:creator>
        <dc:description>A Tango-style boot icon loosely based on a boot icon from the Haiku operating system.</dc:description>
        <dc:contributor>
          <cc:Agent>
            <dc:title>The Haiku project</dc:title>
          </cc:Agent>
        </dc:contributor>
        <dc:source />
      </cc:Work>
    </rdf:RDF>
  </metadata>
  <defs
     id="defs4270">
    <radialGradient
       id="radialGradient3839"
       gradientUnits="userSpaceOnUse"
       cx="0"
       cy="0"
       r="64"
       gradientTransform="matrix(0.2115,0.1193,-0.1995,0.3538,17.5472,33.0326)">
      <stop
         offset="0.2699"
         stop-color="#f9efb6"
         id="stop3841" />
      <stop
         offset="1"
         stop-color="#b69d6c"
         id="stop3843" />
    </radialGradient>
    <radialGradient
       id="radialGradient3804"
       gradientUnits="userSpaceOnUse"
       cx="0"
       cy="0"
       r="64"
       gradientTransform="matrix(0.2115,0.1193,-0.1995,0.3538,17.5472,33.0326)">
      <stop
         offset="0.54665607"
         id="stop3806"
         style="stop-color:#0e0c09;stop-opacity:1" />
      <stop
         offset="1"
         id="stop3808"
         style="stop-color:#3e2f1f;stop-opacity:1" />
    </radialGradient>
    <linearGradient
       id="linearGradient5566">
      <stop
         style="stop-color:#efe4dc;stop-opacity:0.67450982;"
         offset="0"
         id="stop5568" />
      <stop
         style="stop-color:#e3c79f;stop-opacity:0.67424244;"
         offset="1"
         id="stop5570" />
    </linearGradient>
    <radialGradient
       gradientTransform="matrix(0.2115,0.1193,-0.1995,0.3538,17.5472,33.0326)"
       r="64"
       cy="0"
       cx="0"
       gradientUnits="userSpaceOnUse"
       id="gradient0">
      <stop
         id="stop4244"
         stop-color="#f9efb6"
         offset="0.2699" />
      <stop
         id="stop4246"
         stop-color="#b69d6c"
         offset="1" />
    </radialGradient>
    <radialGradient
       inkscape:collect="always"
       xlink:href="#gradient0"
       id="radialGradient4287"
       gradientUnits="userSpaceOnUse"
       gradientTransform="matrix(0.11910412,0.0664839,-0.11234643,0.19716686,-34.072141,26.23436)"
       cx="0"
       cy="0"
       r="64" />
    <radialGradient
       inkscape:collect="always"
       xlink:href="#radialGradient3839"
       id="radialGradient5525"
       cx="6.1333151"
       cy="51.198727"
       fx="6.1333151"
       fy="51.198727"
       r="17.318638"
       gradientTransform="matrix(-0.47077018,0.67229672,0.58124843,0.40701281,-12.910182,-18.991648)"
       gradientUnits="userSpaceOnUse" />
    <radialGradient
       inkscape:collect="always"
       xlink:href="#radialGradient3804"
       id="radialGradient5564"
       cx="30.696774"
       cy="34.355301"
       fx="30.696774"
       fy="34.355301"
       r="5.6659241"
       gradientTransform="matrix(-0.61357041,-0.03899419,-0.03836744,0.57792215,23.635596,-14.28542)"
       gradientUnits="userSpaceOnUse" />
    <linearGradient
       id="linearGradient3816">
      <stop
         style="stop-color:#000000;stop-opacity:1;"
         offset="0"
         id="stop3818" />
      <stop
         style="stop-color:#000000;stop-opacity:0;"
         offset="1"
         id="stop3820" />
    </linearGradient>
  </defs>
  <sodipodi:namedview
     pagecolor="#ffffff"
     bordercolor="#666666"
     borderopacity="1"
     objecttolerance="10"
     gridtolerance="10"
     guidetolerance="10"
     inkscape:pageopacity="0"
     inkscape:pageshadow="2"
     inkscape:window-width="1350"
     inkscape:window-height="708"
     id="namedview4268"
     showgrid="false"
     inkscape:zoom="16"
     inkscape:cx="-8.3519074"
     inkscape:cy="10.246076"
     inkscape:window-x="0"
     inkscape:window-y="0"
     inkscape:window-maximized="1"
     inkscape:current-layer="g3841" />
  <g
     id="g3841"
     transform="matrix(0.04514826,0,0,0.04514826,6.5751704,3.1314384)">
    <path
       sodipodi:nodetypes="cccsccccccccccccccccccccccccccccc"
       inkscape:connector-curvature="0"
       id="path567"
       style="font-size:12px;fill:#ff9900;fill-opacity:1;fill-rule:evenodd;stroke-width:1.20610082"
       d="m 31.762235,284.11927 c 3.214074,3.60023 6.04349,6.59745 6.28598,6.6585 0.243146,0.0621 1.421155,-1.25722 2.618065,-2.93255 1.19691,-1.67535 6.483615,-6.37803 11.748858,-10.44969 5.265243,-4.07167 12.916769,-10.22622 17.004499,-13.6751 4.08706,-3.44988 12.50658,-9.99419 18.70844,-14.5436 l 11.278026,-8.27238 -9.1423,-6.73989 C 55.148647,208.2782 47.124883,258.05798 52.399222,209.6067 c 1.36982,-12.57849 -7.677238,-4.24758 -5.699021,-7.75971 2.17707,-3.86573 31.548256,14.32151 24.894986,-5.17598 5.5666,3.06353 12.2073,1.97763 8.07522,21.22007 -5.41277,25.20252 -3.52818,-19.1574 0,0 4.98949,27.0904 3.61816,-7.4049 28.592233,8.31422 l 8.14261,5.12406 5.32093,-2.5472 c 17.81889,-8.53275 34.89996,-13.43309 40.71837,-11.68202 1.24409,0.3739 5.01863,2.85332 8.38763,5.50996 5.78708,4.56046 6.37884,4.73402 10.65449,3.11491 14.9634,-5.66454 24.1469,-4.4547 31.39071,4.13595 2.40854,2.85646 26.16084,77.90216 26.51248,77.67078 0.35164,-0.23139 52.19561,-25.76981 60.67176,-34.03095 29.92695,-29.1695 25.55075,-41.9401 36.09072,-67.95008 11.31118,-1.53927 -9.00919,-3.54686 0,0 l 6.18422,-24.30676 v 0 c 0.94258,-8.39995 0.0772,-34.14136 -2.17425,-46.44372 -2.63516,-14.40184 -7.78008,-30.61485 -13.86496,-43.692676 C 320.6203,78.906804 300.53561,50.029424 291.73161,41.409804 265.66783,15.891384 237.19118,0.52866482 202.14824,-6.9184752 150.15682,-17.968436 100.13473,-6.7453952 57.412456,25.552654 -7.226164,74.419184 -30.273423,162.75048 2.1131169,237.49505 c 4.820097,11.12506 21.8091041,37.8399 29.6491181,46.62422 z" />
    <g
       id="g3940"
       transform="translate(13.704148,25.45056)">
      <path
         inkscape:connector-curvature="0"
         d="m 239.44845,165.97121 c -41.68843,-13.6743 -54.54969,-63.68944 -24.28634,-94.453481 4.04642,-4.113908 11.24143,-9.306127 15.98945,-11.537775 7.48697,-3.520601 10.71877,-4.060541 24.32872,-4.060541 13.96312,0 16.67223,0.478726 24.52492,4.33679 10.38129,5.097727 22.29608,17.214997 26.68624,27.137976 12.73255,28.784791 0.26839,62.670751 -27.77398,75.510041 -10.71719,4.90498 -29.42832,6.35999 -39.46901,3.06699 z"
         style="font-size:12px;fill-rule:evenodd;stroke-width:1.56959438"
         id="path568" />
      <path
         inkscape:connector-curvature="0"
         d="m 271.37775,158.34738 c 9.26207,-3.31062 21.09251,-14.98223 25.10389,-24.76762 9.66093,-23.56146 1.48431,-48.553278 -19.91587,-60.882532 -8.47433,-4.881493 -10.22504,-5.329885 -20.65519,-5.285038 -8.48859,0.03587 -13.09397,0.854931 -18.05548,3.213468 -9.93443,4.723064 -18.71218,14.007734 -23.22925,24.568848 -3.50285,8.190594 -3.85468,10.466924 -3.28775,21.295584 0.44588,8.53736 1.55841,14.00175 3.75783,18.47519 1.71793,3.49447 3.28773,6.35222 3.48859,6.35222 0.20084,0 0.11957,-2.7053 -0.18091,-6.01144 -0.84616,-9.3086 0.91738,-15.98663 5.74784,-21.75892 15.4273,-18.436339 43.95566,-13.27836 51.03398,9.22788 4.01851,12.77467 -2.17094,27.85706 -14.15664,34.49622 l -6.27776,3.47653 h 4.95582 c 2.72649,0 7.97718,-1.07914 11.6709,-2.40039 z"
         style="font-size:12px;fill:#ffffff;fill-rule:evenodd;stroke-width:1.45914495"
         id="path569" />
    </g>
    <g
       id="g3946"
       transform="translate(-105.4872,-33.281502)">
      <path
         id="path3942"
         style="font-size:12px;fill-rule:evenodd;stroke-width:1.56959438"
         d="m 239.44845,165.97121 c -41.68843,-13.6743 -54.54969,-63.68944 -24.28634,-94.453481 4.04642,-4.113908 11.24143,-9.306127 15.98945,-11.537775 7.48697,-3.520601 10.71877,-4.060541 24.32872,-4.060541 13.96312,0 16.67223,0.478726 24.52492,4.33679 10.38129,5.097727 22.29608,17.214997 26.68624,27.137976 12.73255,28.784791 0.26839,62.670751 -27.77398,75.510041 -10.71719,4.90498 -29.42832,6.35999 -39.46901,3.06699 z"
         inkscape:connector-curvature="0" />
      <path
         id="path3944"
         style="font-size:12px;fill:#ffffff;fill-rule:evenodd;stroke-width:1.45914495"
         d="m 271.37775,158.34738 c 9.26207,-3.31062 21.09251,-14.98223 25.10389,-24.76762 9.66093,-23.56146 1.48431,-48.553278 -19.91587,-60.882532 -8.47433,-4.881493 -10.22504,-5.329885 -20.65519,-5.285038 -8.48859,0.03587 -13.09397,0.854931 -18.05548,3.213468 -9.93443,4.723064 -18.71218,14.007734 -23.22925,24.568848 -3.50285,8.190594 -3.85468,10.466924 -3.28775,21.295584 0.44588,8.53736 1.55841,14.00175 3.75783,18.47519 1.71793,3.49447 3.28773,6.35222 3.48859,6.35222 0.20084,0 0.11957,-2.7053 -0.18091,-6.01144 -0.84616,-9.3086 0.91738,-15.98663 5.74784,-21.75892 15.4273,-18.436339 43.95566,-13.27836 51.03398,9.22788 4.01851,12.77467 -2.17094,27.85706 -14.15664,34.49622 l -6.27776,3.47653 h 4.95582 c 2.72649,0 7.97718,-1.07914 11.6709,-2.40039 z"
         inkscape:connector-curvature="0" />
    </g>
  </g>
  <path
     inkscape:connector-curvature="0"
     id="path4237"
     d="m 0.68675222,16.588525 c -0.435738,-1.982028 0.39563798,-7.1132042 0.216793,-7.7356418 0,0 -1.019463,-6.3894427 -0.339821,-7.4016652 1.35928498,-1.67806959 4.40473598,-1.38437939 5.77696198,0 0.996704,1.0804986 1.359285,1.6847953 1.359285,3.0299409 0,1.3451456 -0.125238,5.2158134 -0.286214,7.3408391 0.447129,0.121672 0.804849,0.07183 1.269846,0.422481 0.572367,0.143076 6.0459858,-2.033143 10.0127568,1.009216 1.138077,0.87286 1.18044,2.500599 0.500797,4.182032 l 0.339822,1.345146 c -0.679643,1.008859 -7.701322,0.67013 -11.6381318,0.688002 -1.039875,0.0047 -1.694926,-0.04523 -1.694926,-0.04523 l -0.655395,-1.524181 -0.857736,0.01867 -0.844118,1.536379 -3.30862898,3.39e-4 z"
     style="fill:url(#radialGradient5525);fill-opacity:1;stroke:none;stroke-width:0.58404046"
     sodipodi:nodetypes="ccccsccsccscccccc" />
  <path
     style="fill:#221a0f;fill-opacity:1;stroke:none;stroke-width:0.58404046"
     d="m 18.988186,17.019716 0.546036,1.756088 c -0.679643,1.008859 -7.706013,0.661738 -11.642824,0.679611 -1.0398752,0.0047 -1.6811446,-0.03577 -1.6811446,-0.03577 l -0.6617272,-1.520181 -0.8584571,0.01788 -0.8405726,1.520182 -3.30863635,0.01788 0.14109248,-2.469888 0.88296227,-4.72e-4 2.5522701,0.05011 2.0694364,-9.93e-4 12.0346936,-0.05149 z"
     id="path5542"
     inkscape:connector-curvature="0"
     sodipodi:nodetypes="cccccccccccccc" />
  <path
     style="fill:none;stroke:#422c16;stroke-width:0.5840404px;stroke-linecap:butt;stroke-linejoin:miter;stroke-opacity:1"
     d="M 7.3414498,2.7691892 C 7.5918332,4.6649447 4.3033941,5.0636025 3.9076214,5.089701 1.4842688,5.0941397 0.63800885,3.2311173 0.31608751,2.927081"
     id="path5549"
     inkscape:connector-curvature="0"
     sodipodi:nodetypes="ccc" />
  <path
     style="fill:url(#radialGradient5564);fill-opacity:1;fill-rule:nonzero;stroke:none;stroke-width:0.62066203"
     d="M 0.38813832,2.8244474 C 1.5775049,4.5574661 2.8716564,4.8411583 3.9236029,4.8924082 5.7829571,4.7093649 7.51618,3.9294523 7.3414498,2.7691892 6.0911776,0.26228846 2.3485249,-0.48989705 0.58014647,1.498276 0.37250526,2.0580615 0.38284171,2.6233903 0.38813832,2.8244474 Z"
     id="path5553"
     inkscape:connector-curvature="0"
     sodipodi:nodetypes="ccccc" />
  <path
     sodipodi:nodetypes="ccccsccsccscccccc"
     style="fill:none;stroke:#422c16;stroke-width:0.5840404;stroke-miterlimit:4;stroke-dasharray:none;stroke-opacity:1"
     d="m 0.64132737,17.049707 c -0.96576402,-3.14796 0.37251553,-4.899868 0.37251553,-5.236153 0,0 -1.12677047,-9.3582685 -0.44712845,-10.3704905 1.35928575,-1.67806949 4.40473605,-1.38437932 5.77696185,0 0.9967047,1.0804987 1.3592852,1.6847954 1.3592852,3.029941 0,1.3451456 -0.1610065,5.5377345 -0.2862137,7.5554535 0.7690498,-0.0214 1.1983085,-0.142786 1.8421511,0.350943 1.3592861,0 5.2769511,-2.211988 9.2437221,0.830371 1.138077,0.87286 1.357116,2.152641 0.677473,3.834074 l 0.359876,1.728873 c -0.679643,1.008859 -7.701322,0.67013 -11.6381322,0.688002 -1.0398753,0.0047 -1.8466816,-0.01994 -1.8466816,-0.01994 l -0.5289321,-1.52418 -0.8071509,-0.0066 -0.6164845,1.536379 -3.56155509,3.39e-4 z"
     id="path5533"
     inkscape:connector-curvature="0" />
  <path
     style="fill:none;stroke:#000000;stroke-width:0.5840404;stroke-miterlimit:4;stroke-dasharray:none"
     d="M 10.487388,12.163811 5.9294754,12.984936 8.8824294,10.721865 5.437388,11.290066 8.8824294,9.0172614 5.437388,9.5854626 9.4566019,7.3126576 5.437388,8.4490595 10.030775,5.6080538 5.437388,6.1762574"
     id="path5607"
     inkscape:connector-curvature="0"
     sodipodi:nodetypes="cccccccccc" />
</svg>
