<?xml version="1.0" encoding="iso-8859-1"?>
<!-- Generator: Adobe Illustrator 16.0.0, SVG Export Plug-In . SVG Version: 6.00 Build 0)  -->
<!DOCTYPE svg PUBLIC "-//W3C//DTD SVG 1.1//EN" "http://www.w3.org/Graphics/SVG/1.1/DTD/svg11.dtd">
<svg version="1.1" id="Capa_1" xmlns="http://www.w3.org/2000/svg" xmlns:xlink="http://www.w3.org/1999/xlink" x="0px" y="0px"
	 width="416.027px" height="416.027px" viewBox="0 0 416.027 416.027" style="enable-background:new 0 0 416.027 416.027;"
	 xml:space="preserve">
<g>
	<path d="M311.322,23.003c-21.027-25.694-58.124-30.354-84.825-11.5c0,0,2.044,7.253,4.344,12.513
		c0.124,0.305,0.293,0.433,0.429,0.643c5.875,14.156,15.12,29.745,27.571,44.976c14.644,17.877,30.757,31.865,45.3,40.312
		C329.448,87.715,332.814,49.288,311.322,23.003z M310.372,67.671c1.19-1.625,3.604-1.897,5.338-0.613
		c1.771,1.289,0.802,5.458,0.706,5.566c-0.093,0.23-0.156,0.491-0.325,0.709c-1.134,1.545-3.402,1.813-5.058,0.579
		C309.55,72.839,309.975,68.225,310.372,67.671z M316.231,93.507c-1.318,1.751-3.282,2.48-4.38,1.641
		c-0.59-0.445-0.457-4.37,0.368-5.454c1.327-1.753,3.29-2.473,4.384-1.641C317.212,88.494,317.037,92.419,316.231,93.507z
		 M322.855,64.54c-1.15,0.936-3.098,0.465-4.355-1.092c-0.689-0.832-1.051-4.707-0.321-5.29c1.143-0.936,3.094-0.457,4.353,1.092
		C323.208,60.067,323.573,63.947,322.855,64.54z M315.41,39.954c0.905-0.739,2.736-0.034,4.071,1.591
		c0.722,0.873,1.539,4.634,0.966,5.105c-0.922,0.735-2.753,0.046-4.071-1.595C315.646,44.166,314.848,40.425,315.41,39.954z
		 M314.865,52.583c-1.287,1.058-3.479,0.519-4.877-1.192c-0.758-0.919-1.154-5.277-0.337-5.951c1.306-1.058,3.49-0.527,4.893,1.194
		C315.309,47.566,315.678,51.924,314.865,52.583z M305.896,24.237c0.833-0.677,2.736,0.259,4.248,2.12
		c0.817,0.998,2.052,5.016,1.53,5.44c-0.817,0.66-2.697-0.276-4.231-2.128C306.625,28.649,305.375,24.644,305.896,24.237z
		 M304.369,32.054c0.83,0.996,1.303,5.646,0.453,6.352c-1.351,1.108-3.663,0.487-5.182-1.349c-0.813-1.012-1.29-5.663-0.461-6.352
		C300.545,29.581,302.858,30.194,304.369,32.054z M293.898,39.521c0.829,0.996,0.981,5.903,0,6.718
		c-1.527,1.258-4.048,0.802-5.566-1.058c-0.813-0.996-0.982-5.887,0-6.681C289.894,37.205,292.386,37.67,293.898,39.521z
		 M275.612,4.118c1.222-0.996,3.138-0.675,4.279,0.735c1.15,1.398,1.103,3.346-0.132,4.344c-1.202,0.98-3.118,0.643-4.26-0.755
		C274.357,7.045,274.402,5.1,275.612,4.118z M244.113,10.163c-1.073,0.87-2.271,1.238-3.237,1.16c-0.91,0.158-1.747,0-2.2-0.567
		c-0.874-1.072-0.213-3.066,1.459-4.442c1.073-0.87,2.268-1.238,3.233-1.162c0.922-0.148,1.747,0.016,2.225,0.583
		C246.458,6.801,245.8,8.778,244.113,10.163z M255.213,22.195c-1.703,1.382-4.203,1.154-5.582-0.533
		c-0.85-1.062-0.136-5.811,0.79-6.562c1.703-1.398,4.195-1.162,5.598,0.517C256.853,16.675,256.156,21.428,255.213,22.195z
		 M257.735,5.945c-1.884,0.226-3.635-0.613-3.88-1.87c-0.26-1.238,1.059-2.451,2.945-2.683c1.9-0.226,3.635,0.597,3.896,1.852
		C260.968,4.5,259.638,5.708,257.735,5.945z M266.323,40.195c-1.703,1.4-4.296,1.014-5.812-0.838
		c-0.813-0.998-0.797-6.053,0.245-6.917c1.703-1.399,4.308-1.012,5.811,0.855C267.388,34.292,267.356,39.341,266.323,40.195z
		 M268.194,13.123c-1.503,1.625-3.787,1.928-5.094,0.719c-0.817-0.77-0.305-5.182,0.509-6.059c1.495-1.595,3.771-1.932,5.082-0.706
		C269.512,7.843,268.996,12.241,268.194,13.123z M279.807,58.411c-1.803,1.457-4.557,1.044-6.155-0.92
		c-0.873-1.058-0.861-6.436,0.253-7.348c1.787-1.461,4.552-1.058,6.147,0.92C280.933,52.121,280.933,57.491,279.807,58.411z
		 M280.481,29.803c-1.539,1.269-4.08,0.81-5.566-1.062c-0.817-0.996-0.994-5.871,0-6.688c1.551-1.269,4.039-0.824,5.566,1.046
		C281.318,24.097,281.447,29.002,280.481,29.803z M285.486,14.218c1.274-1.074,3.459-0.533,4.877,1.196
		c0.766,0.916,1.126,5.274,0.337,5.933c-1.303,1.062-3.495,0.517-4.89-1.192C285.037,19.22,284.668,14.882,285.486,14.218z
		 M293.937,72.03c-1.694,1.38-4.304,0.998-5.798-0.846c-0.817-1.014-0.806-6.053,0.26-6.935c1.672-1.38,4.28-0.998,5.791,0.854
		C295.007,66.113,294.996,71.152,293.937,72.03z M295.14,16.613c-0.63-0.87-1.106-4.552-0.485-4.983
		c0.966-0.693,2.701,0.092,3.852,1.733c0.621,0.89,1.086,4.555,0.48,4.987C298.013,19.025,296.298,18.254,295.14,16.613z
		 M299.432,53.716c1.562-1.289,4.071-0.818,5.582,1.026c0.821,0.998,0.966,5.905-0.017,6.712c-1.538,1.272-4.047,0.801-5.565-1.042
		C298.615,59.408,298.466,54.517,299.432,53.716z M300.791,85.963c-0.762-0.903-0.537-5.723,0.528-6.592
		c1.688-1.369,4.172-1.108,5.566,0.593c0.75,0.906,0.537,5.723-0.513,6.598C304.677,87.941,302.185,87.667,300.791,85.963z"/>
	<path d="M295.592,116.273c-14.23-8.526-29.863-22.199-44.065-39.605c-16.73-20.396-28.06-41.693-32.584-58.923
		c-12.047,11.68-18.453,27.25-18.978,43.066c4.765,12.852,12.192,26.05,22.359,38.411c8.119,9.91,17.14,18.166,26.394,24.778
		c1.566,0.353,3.146,0.603,4.732,0.832c0.152,0.1,0.305,0.227,0.453,0.331l0.276-0.198
		C268.23,126.879,282.905,124.1,295.592,116.273z"/>
	<path d="M106.059,389.181c0,14.836,34.519,26.846,77.089,26.846c42.563,0,77.079-12.01,77.079-26.846
		c0-13.813-30.008-25.179-68.537-26.657V176.888l19.212-15.625c1.625-1.311,2.065-3.703,1.537-6.42l28.769-20.601
		c-9.95-6.818-19.672-15.635-28.374-26.25c-10.891-13.258-18.771-27.507-23.444-41.214l-29.202,26.667
		c-1.415-0.11-2.733,0.046-3.712,0.839l-36.985,30.054c-1.797,1.461-2.046,4.27-1.214,7.37l-18.238,16.652
		c-10.549,8.632-12.645,23.502-4.681,33.238l16.022,19.576c7.979,9.732,22.973,10.629,33.522,2.012l19.107-13.677
		c1.014,0.748,2.052,1.393,3.08,1.837v171.57C132.226,365.505,106.059,376.269,106.059,389.181z"/>
</g>
<g>
</g>
<g>
</g>
<g>
</g>
<g>
</g>
<g>
</g>
<g>
</g>
<g>
</g>
<g>
</g>
<g>
</g>
<g>
</g>
<g>
</g>
<g>
</g>
<g>
</g>
<g>
</g>
<g>
</g>
</svg>
