<?xml version="1.0" encoding="UTF-8" standalone="no"?>
<svg
   xmlns:dc="http://purl.org/dc/elements/1.1/"
   xmlns:cc="http://creativecommons.org/ns#"
   xmlns:rdf="http://www.w3.org/1999/02/22-rdf-syntax-ns#"
   xmlns:svg="http://www.w3.org/2000/svg"
   xmlns="http://www.w3.org/2000/svg"
   id="svg1"
   height="100"
   width="100"
   y="0"
   x="0"
   version="1.0">
  <metadata
     id="metadata8">
    <rdf:RDF>
      <cc:Work
         rdf:about="">
        <dc:format>image/svg+xml</dc:format>
        <dc:type
           rdf:resource="http://purl.org/dc/dcmitype/StillImage" />
        <dc:title></dc:title>
      </cc:Work>
    </rdf:RDF>
  </metadata>
  <defs
     id="defs5" />
  <path
     id="path2"
     style="font-size:12;fill:#e7e6e0;stroke:#222222;stroke-width:2;"
     d="M 4 88 C 4 87 3.6 25 3.6 25 C 3.6 25 3 20 8 20 C 7 20 14 20 14 20 L 14 14 C 14 14 14 11 17 11 L 34 11 C 34 11 37 11 37 14 L 37 20 L 80 20 C 80 20 84 20 84 24 L 82 88 L 4 88 z " />
  <path
     id="path3"
     style="font-size:12px;fill:#e9e3bb;fill-opacity:0.8;stroke:#222222;stroke-width:2"
     d="m 15,40 c 0,0 0,-7 8,-7 l 66,0 c 0,0 9,-1 7,6 -2,7 -12,49 -12,49 L 5.6575623,88.106661 Z" />
</svg>
