<?xml version="1.0" encoding="UTF-8" standalone="no"?>
<svg
   xmlns:dc="http://purl.org/dc/elements/1.1/"
   xmlns:cc="http://creativecommons.org/ns#"
   xmlns:rdf="http://www.w3.org/1999/02/22-rdf-syntax-ns#"
   xmlns:svg="http://www.w3.org/2000/svg"
   xmlns="http://www.w3.org/2000/svg"
   xmlns:xlink="http://www.w3.org/1999/xlink"
   id="svg2"
   width="100"
   height="100"
   version="1.1">
  <metadata
     id="metadata17">
    <rdf:RDF>
      <cc:Work
         rdf:about="">
        <dc:format>image/svg+xml</dc:format>
        <dc:type
           rdf:resource="http://purl.org/dc/dcmitype/StillImage" />
        <dc:title></dc:title>
      </cc:Work>
    </rdf:RDF>
  </metadata>
  <defs
     id="defs4">
    <radialGradient
       gradientUnits="userSpaceOnUse"
       r="50"
       fy="50"
       fx="50"
       cy="50"
       cx="50"
       id="RG1">
      <stop
         id="stop7"
         offset="1"
         style="stop-color:#3BB23B;stop-opacity:1;" />
      <stop
         id="stop9"
         offset="0"
         style="stop-color:#9BDC99;stop-opacity:1;" />
    </radialGradient>
    <radialGradient
       gradientTransform="matrix(1.1185421,0,0,0.64027684,-9.9747426,0.92441228)"
       r="50"
       fy="50"
       fx="50"
       cy="50"
       cx="50"
       gradientUnits="userSpaceOnUse"
       id="radialGradient4147"
       xlink:href="#RG1" />
  </defs>
  <path
     id="path11"
     d="m 4.5663039,4.1257964 0,58.2651916 83.8906541,-28.812457 z"
     style="fill:url(#radialGradient4147);stroke:#0f9324;stroke-width:5.0776329" />
  <path
     id="path13"
     style="fill:#ffabff;stroke:#ff00ff;stroke-width:3.036;fill-opacity:1;stroke-miterlimit:4;stroke-dasharray:none;stroke-opacity:1"
     d="m 59.06387,75.589905 c 2.066038,3.710589 4.511624,6.514575 7.336765,8.411986 2.825008,1.897458 6.008486,2.846183 9.550442,2.846155 4.258618,2.8e-5 7.737251,-1.412514 10.435915,-4.237608 2.698493,-2.867216 4.04778,-6.514509 4.04787,-10.941899 -9e-5,-4.25866 -1.243966,-7.800536 -3.731629,-10.625658 -2.487837,-2.825028 -5.608066,-4.237561 -9.3607,-4.237617 -3.45763,5.6e-5 -6.598944,1.433678 -9.423947,4.300856 -2.782977,2.825131 -5.734547,7.653053 -8.854716,14.483785 m -7.716253,-6.76753 c -2.066149,-3.710495 -4.511734,-6.493411 -7.336765,-8.348729 -2.782951,-1.855224 -5.966428,-2.782859 -9.550444,-2.782916 -4.30089,5.7e-5 -7.800608,1.39151 -10.499162,4.174369 -2.656435,2.782953 -3.984641,6.409167 -3.984622,10.878651 -1.9e-5,4.258725 1.243856,7.800611 3.73163,10.625658 2.487728,2.825103 5.607959,4.237636 9.360699,4.237617 3.457521,1.9e-5 6.598833,-1.433593 9.423948,-4.300865 2.825032,-2.867216 5.7766,-7.695129 8.854716,-14.483785 m 4.490605,11.574382 c -2.951624,5.692337 -6.092936,9.887786 -9.423947,12.586346 -3.288937,2.656428 -6.91515,3.984637 -10.878651,3.984627 -5.734511,1e-5 -10.562434,-2.340172 -14.483785,-7.020536 -3.92139,-4.722487 -5.882075,-10.583452 -5.88206,-17.582934 -1.5e-5,-7.378877 1.749844,-13.345269 5.24958,-17.899174 3.541864,-4.553793 8.137879,-6.830713 13.788058,-6.830779 4.005667,6.6e-5 7.610798,1.328271 10.815403,3.984624 3.246681,2.656466 6.387994,6.894074 9.423946,12.712842 2.867184,-5.818768 5.966335,-10.098535 9.297453,-12.839338 3.330992,-2.78285 7.041539,-4.174304 11.131643,-4.174369 5.650073,6.5e-5 10.456914,2.382402 14.420537,7.14702 3.963443,4.722571 5.94521,10.604625 5.945314,17.646181 -1.04e-4,7.378972 -1.771037,13.324265 -5.312834,17.835927 -3.499809,4.511708 -8.074737,6.767553 -13.72481,6.767543 -3.963608,1e-5 -7.526573,-1.243862 -10.688907,-3.731634 -3.120295,-2.529904 -6.345936,-6.725343 -9.67694,-12.586346" />
</svg>
